<?xml version="1.0" encoding="UTF-8" standalone="no"?>
<!DOCTYPE svg PUBLIC "-//W3C//DTD SVG 1.1//EN" "http://www.w3.org/Graphics/SVG/1.1/DTD/svg11.dtd">
<svg version="1.1" xmlns="http://www.w3.org/2000/svg" xmlns:xlink="http://www.w3.org/1999/xlink" preserveAspectRatio="xMidYMid meet" viewBox="0 0 640 320" width="640" height="320"><defs><path d="M618.24 274.32C618.24 280.2 484.71 284.96 320 284.96C155.29 284.96 21.76 280.2 21.76 274.32C21.76 268.44 155.29 263.68 320 263.68C484.71 263.68 618.24 268.44 618.24 274.32Z" id="b4czT2JvZA"></path><path d="M554.27 208.45C554.27 202.71 550.72 198.05 546.32 198.05C541.92 198.05 538.38 202.71 538.38 208.45C538.36 210.68 538.93 212.87 540.04 214.81C537.83 218.76 537.83 223.57 540.04 227.52C537.83 231.46 537.83 236.27 540.04 240.22C537.83 244.17 537.83 248.98 540.04 252.93C538.93 254.86 538.36 257.06 538.38 259.29C538.38 265.03 541.93 269.69 546.32 269.69C550.72 269.69 554.27 265.03 554.27 259.29C554.29 257.06 553.72 254.86 552.61 252.93C554.82 248.98 554.82 244.17 552.61 240.22C554.82 236.27 554.82 231.46 552.61 227.52C554.82 223.57 554.82 218.76 552.61 214.81C553.72 212.87 554.29 210.68 554.27 208.45Z" id="h7hqh5BHU"></path><path d="M554.24 195.74C554.24 201.48 550.69 206.14 546.3 206.14C541.92 206.14 538.36 201.48 538.36 195.74C538.36 190 541.92 185.34 546.3 185.34C550.69 185.34 554.24 190 554.24 195.74Z" id="a8kvhuQrS"></path><path d="M554.24 183.03C554.24 188.77 550.69 193.43 546.3 193.43C541.92 193.43 538.36 188.77 538.36 183.03C538.36 177.29 541.92 172.63 546.3 172.63C550.69 172.63 554.24 177.29 554.24 183.03Z" id="fecGaz7Z5"></path><path d="M513.61 91.7C515 91.48 521.96 90.33 534.48 88.28C520.94 88.38 513.41 88.43 511.91 88.45C507.53 78.92 507.27 68.02 511.18 58.3C513.2 59.34 523.3 64.58 541.47 74.01C524.71 61.69 515.4 54.85 513.54 53.48C524.05 35.28 547.32 29.04 565.52 39.55C583.71 50.06 589.95 73.33 579.44 91.53C578.53 93.11 577.51 94.62 576.38 96.05C578.07 98.2 579.53 100.53 580.72 102.99C578.91 103.93 569.88 108.62 553.63 117.07C570.96 111.26 580.59 108.03 582.51 107.38C586.63 119.56 584.32 133 576.37 143.11C589.37 159.62 586.52 183.54 570.01 196.54C553.49 209.53 529.57 206.68 516.57 190.17C505.71 176.36 505.71 156.91 516.57 143.11C505.72 129.3 505.72 109.86 516.57 96.06C516.57 96.06 516.57 96.06 516.57 96.06C515.19 94.17 514.2 92.72 513.61 91.7Z" id="a8eOutgZ4"></path><path d="M576.4 143.11C589.39 159.62 586.54 183.54 570.03 196.54C553.51 209.53 529.59 206.68 516.6 190.17C505.73 176.36 505.73 156.91 516.6 143.11C511.47 136.64 584.54 115.32 584.54 119.58C584.55 128.12 581.68 136.41 576.4 143.11Z" id="e1LXYB9VK8"></path><path d="M520.98 38.03C526.69 38.03 531.33 42.66 531.33 48.38C531.33 69.42 531.33 237.74 531.33 258.77C531.33 264.49 526.69 269.12 520.98 269.12C480.78 269.12 159.22 269.12 119.02 269.12C113.31 269.12 108.67 264.49 108.67 258.77C108.67 237.74 108.67 69.42 108.67 48.38C108.67 42.66 113.31 38.03 119.02 38.03C199.41 38.03 480.78 38.03 520.98 38.03Z" id="b5kE4LwyEI"></path><path d="M244.74 49.43L244.74 49.43L244.74 269.38L244.74 269.38C169.46 269.38 127.64 269.38 119.27 269.38C113.56 269.38 108.93 264.74 108.93 259.03C108.93 259.03 108.93 259.03 108.93 259.03L108.93 49.43L108.93 49.43L244.74 49.43Z" id="a38th1Sytj"></path><path d="M531.33 54.25L108.67 54.25C108.67 50.73 108.67 48.77 108.67 48.38C108.67 42.67 113.3 38.04 119.02 38.04C119.02 38.04 119.02 38.04 119.02 38.04C159.22 38.04 480.78 38.04 520.98 38.04C526.69 38.03 531.32 42.66 531.33 48.37C531.33 48.38 531.33 48.38 531.33 48.38C531.33 49.16 531.33 51.12 531.33 54.25Z" id="c3fPhGS6lK"></path><path d="M119.57 43.35C117.89 43.35 116.53 44.71 116.53 46.39C116.53 48.07 117.89 49.43 119.57 49.43C121.25 49.43 122.61 48.07 122.61 46.39C122.61 44.71 121.25 43.35 119.57 43.35Z" id="b5524rL365"></path><path d="M127.17 43.35C125.49 43.35 124.13 44.71 124.13 46.39C124.13 48.07 125.49 49.43 127.17 49.43C128.85 49.43 130.21 48.07 130.21 46.39C130.21 44.71 128.85 43.35 127.17 43.35Z" id="axqVa80D0"></path><path d="M134.77 43.35C133.09 43.35 131.73 44.71 131.73 46.39C131.73 48.07 133.09 49.43 134.77 49.43C136.45 49.43 137.81 48.07 137.81 46.39C137.81 44.71 136.45 43.35 134.77 43.35Z" id="q86A5HAcNf"></path><path d="M504.21 81.68C505.75 81.68 507 82.92 507 84.46C507 84.46 507 84.46 507 84.46C507 86 505.75 87.25 504.21 87.25C487.19 87.25 350.96 87.25 333.94 87.25C332.4 87.25 331.15 86 331.15 84.46C331.15 84.46 331.15 84.46 331.15 84.46C331.15 82.92 332.4 81.68 333.94 81.68C367.99 81.68 487.19 81.68 504.21 81.68Z" id="ax3Xrf310"></path><path d="M504.25 92.32C504.37 92.32 504.47 92.6 504.47 92.95C504.47 94.09 504.47 103.22 504.47 104.36C504.47 104.71 504.37 104.99 504.25 104.99C503 104.99 492.99 104.99 491.74 104.99C491.62 104.99 491.52 104.71 491.52 104.36C491.52 103.22 491.52 94.09 491.52 92.95C491.52 92.6 491.62 92.32 491.74 92.32C494.24 92.32 503 92.32 504.25 92.32Z" id="dPUEGGiHI"></path><path d="M504.21 149.46C505.75 149.46 507 150.71 507 152.25C507 152.25 507 152.25 507 152.25C507 153.79 505.75 155.04 504.21 155.04C487.19 155.04 350.96 155.04 333.94 155.04C332.4 155.04 331.15 153.79 331.15 152.25C331.15 152.25 331.15 152.25 331.15 152.25C331.15 150.71 332.4 149.46 333.94 149.46C367.99 149.46 487.19 149.46 504.21 149.46Z" id="c9DkFdYB4"></path><path d="M504.25 160.1C504.37 160.1 504.47 160.39 504.47 160.73C504.47 161.87 504.47 171 504.47 172.15C504.47 172.49 504.37 172.77 504.25 172.77C503 172.77 492.99 172.77 491.74 172.77C491.62 172.77 491.52 172.49 491.52 172.15C491.52 171 491.52 161.87 491.52 160.73C491.52 160.39 491.62 160.1 491.74 160.1C494.24 160.1 503 160.1 504.25 160.1Z" id="a2dC1hbHdW"></path><path d="M504.21 218.38C505.75 218.38 507 219.63 507 221.17C507 221.17 507 221.17 507 221.17C507 222.71 505.75 223.96 504.21 223.96C487.19 223.96 350.96 223.96 333.94 223.96C332.4 223.96 331.15 222.71 331.15 221.17C331.15 221.17 331.15 221.17 331.15 221.17C331.15 219.63 332.4 218.38 333.94 218.38C367.99 218.38 487.19 218.38 504.21 218.38Z" id="ac7qFxTZn"></path><path d="M504.25 229.03C504.37 229.03 504.47 229.31 504.47 229.66C504.47 230.8 504.47 239.93 504.47 241.07C504.47 241.41 504.37 241.7 504.25 241.7C503 241.7 492.99 241.7 491.74 241.7C491.62 241.7 491.52 241.41 491.52 241.07C491.52 239.93 491.52 230.8 491.52 229.66C491.52 229.31 491.62 229.03 491.74 229.03C494.24 229.03 503 229.03 504.25 229.03Z" id="f9Sp30V6y6"></path><path d="M297.73 136.48C311.34 139.1 320.25 152.25 317.63 165.86C315.01 179.47 301.85 188.38 288.24 185.76C274.63 183.14 265.72 169.98 268.34 156.37C270.96 142.76 284.12 133.85 297.73 136.48Z" id="b13dCvcuVV"></path><path d="M315.02 174.52C314.75 174.97 314.45 175.41 314.14 175.84C311.35 179.69 307.53 182.67 303.11 184.43C302.68 184.61 302.23 184.77 301.78 184.93C301.36 184.6 300.98 184.23 300.63 183.82C299.58 182.63 298.88 181.18 298.6 179.62C297.93 179.75 297.25 179.81 296.57 179.81C296.5 179.82 296.44 179.82 296.37 179.81C291.15 179.72 286.67 175.9 284.67 170.45C284.66 170.42 284.59 170.24 284.59 170.21C283.37 166.66 283.23 162.83 284.19 159.2C284.19 159.2 284.19 159.2 284.19 159.2C284.22 159.08 284.26 158.95 284.29 158.84C286.01 152.95 290.53 148.67 295.9 148.33C296.07 148.33 296.24 148.33 296.41 148.33C296.58 148.33 296.68 148.33 296.82 148.33C296.84 148.33 297.04 148.33 297.06 148.33C303.87 148.58 309.36 155.16 309.61 163.4C312.45 165.27 313.96 168.61 313.47 171.98C314.15 172.68 314.71 173.48 315.13 174.36C315.1 174.42 315.07 174.47 315.02 174.52Z" id="aErIdVjHY"></path><path d="M314.14 175.84C313.77 175.18 313.31 174.57 312.78 174.04C312.84 173.62 312.87 173.2 312.87 172.77C312.87 169.83 311.39 167.08 308.93 165.46C308.65 157.05 302.93 150.33 295.92 150.33C290.91 150.33 286.57 153.74 284.38 158.76C284.33 158.89 284.28 159.02 284.22 159.16C284.22 159.16 284.22 159.16 284.22 159.16C284.03 159.59 283.87 160.03 283.71 160.49C283.89 159.57 284.14 158.66 284.45 157.77C284.46 157.76 284.52 157.7 284.53 157.7C286.48 152.32 290.83 148.5 295.95 148.28C296.12 148.28 296.29 148.28 296.46 148.28C296.63 148.28 296.73 148.28 296.87 148.28C296.89 148.28 297.09 148.28 297.11 148.28C303.83 148.68 309.21 155.24 309.46 163.39C312.31 165.25 313.82 168.6 313.33 171.97C314.04 172.71 314.62 173.58 315.02 174.52C314.75 174.97 314.45 175.41 314.14 175.84Z" id="a1yWa2LVB"></path><path d="M288.41 168.85C288.11 169.54 287.39 170.16 287.59 170.87C287.8 171.33 288.2 171.65 288.69 171.76C290.87 172.5 293.25 172.05 295.56 172.16C296.33 172.22 297.1 172.25 297.87 172.24C298.65 172.22 299.4 171.96 300.02 171.49C298.82 170.9 297.69 170.19 296.64 169.36C296.39 169.17 296.16 168.96 295.96 168.71C295.53 168.01 295.32 167.2 295.37 166.39C295.37 165.58 295.37 164.78 295.37 163.98C293.71 163.98 292.07 163.95 290.41 163.95C289.91 163.95 288.27 163.82 288.08 164.4C287.99 164.68 288.35 165.52 288.4 165.84C288.49 166.33 288.55 166.83 288.58 167.33C288.64 167.84 288.58 168.36 288.41 168.85Z" id="aAJAPYsNN"></path><path d="M288.41 168.85C288.11 169.54 287.39 170.16 287.59 170.87C287.8 171.33 288.2 171.65 288.69 171.76C290.87 172.5 293.25 172.05 295.56 172.16C296.33 172.22 297.1 172.25 297.87 172.24C298.65 172.22 299.4 171.96 300.02 171.49C298.82 170.9 297.69 170.19 296.64 169.36C296.39 169.17 296.16 168.96 295.96 168.71C295.53 168.01 295.32 167.2 295.37 166.39C295.37 165.58 295.37 164.78 295.37 163.98C293.71 163.98 292.07 163.95 290.41 163.95C289.91 163.95 288.27 163.82 288.08 164.4C287.99 164.68 288.35 165.52 288.4 165.84C288.49 166.33 288.55 166.83 288.58 167.33C288.64 167.84 288.58 168.36 288.41 168.85Z" id="b2Pwr4VXYO"></path><path d="M291.98 154.95C288.76 154.95 286.15 157.56 286.15 160.77C286.15 163.99 288.76 166.6 291.98 166.6C295.19 166.6 297.8 163.99 297.8 160.77C297.8 157.56 295.19 154.95 291.98 154.95Z" id="bHyFUBMkG"></path><path d="M302.96 178.17C302.77 179.12 302.5 180.04 302.14 180.93C301.92 181.54 301.66 182.13 301.37 182.7C301.15 183.09 300.86 183.45 300.63 183.83C300.59 183.88 300.32 184.32 300.29 184.37C300.08 184.73 299.9 185.12 299.75 185.51C298.77 185.76 297.78 185.95 296.77 186.06C295.79 186.17 294.81 186.23 293.82 186.23C288.52 186.23 282.81 184.86 278.76 182.05C278.76 182.05 279.36 181.64 279.27 181.55C279.27 181.31 279.24 181.09 279.24 180.85C279.24 180.25 279.34 179.66 279.53 179.09C279.71 178.55 280.01 178.05 280.41 177.65C280.92 177.14 281.6 176.83 282.14 176.34C282.83 175.67 283.32 174.82 283.55 173.88C283.55 173.88 283.55 173.88 283.55 173.88C283.68 173.48 283.77 173.05 283.86 172.63C283.93 172.06 284.09 171.51 284.32 170.99C284.35 170.92 284.39 170.85 284.43 170.79C284.51 170.66 284.6 170.54 284.71 170.43C285.22 169.93 285.83 169.52 286.49 169.24C287.04 168.95 287.82 168.73 288.2 169.2C288.2 169.2 288.2 169.23 288.2 169.24C288.33 169.53 288.44 169.82 288.52 170.13C288.83 170.77 289.69 170.85 290.39 170.83C292.87 170.78 295.34 170.57 297.78 170.21C297.9 170.2 298.85 170.04 298.97 170.02C299.83 169.88 300.42 170.63 300.9 171.36C302.15 173.24 303.21 175.4 303.02 177.66C303.02 177.82 302.99 177.99 302.96 178.17Z" id="d1e0eI5bKK"></path><path d="M283.02 183.19C282.91 182.77 282.86 182.34 282.88 181.9C282.78 180.91 283.02 179.84 283.57 178.9C283.79 178.48 284.22 177.63 285.1 177.43C285.12 177.56 285.35 178.56 285.38 178.68C285.12 178.74 284.9 179.12 284.7 179.52C284.26 180.25 284.08 181.06 284.16 181.87C284.15 182.27 284.18 182.57 284.26 182.87C284.31 183.07 284.44 183.25 284.61 183.36C284.57 183.43 284.34 183.79 283.94 184.45C283.42 183.96 283.11 183.54 283.02 183.19Z" id="aNFHHjCx"></path><path d="M294.26 153.48C297.75 154.37 300.21 156.48 299.77 158.2C299.33 159.92 296.15 160.59 292.67 159.7C289.18 158.81 286.72 156.7 287.16 154.98C287.6 153.26 290.78 152.59 294.26 153.48Z" id="a1gBIt1Ohf"></path><path d="M287.42 154.35C287.28 154.53 287.17 154.74 287.12 154.96C286.67 156.68 289.14 158.79 292.62 159.68C296.11 160.58 299.29 159.9 299.72 158.16C299.77 157.97 299.78 157.77 299.76 157.58C298.83 158.85 296.03 159.26 292.99 158.48C289.9 157.69 287.61 155.95 287.42 154.35Z" id="a4XHHaNrrM"></path><path d="M303.11 184.43C302.68 184.61 302.23 184.77 301.78 184.93C301.12 185.16 300.44 185.36 299.75 185.51C298.78 185.76 297.78 185.94 296.78 186.05C296.6 183.95 296.2 181.93 296.4 179.8C296.4 179.8 296.4 179.8 296.4 179.8C296.56 178.17 297.12 176.61 298.03 175.24C298.39 174.64 298.9 174.15 299.51 173.82C300.13 173.49 300.88 173.55 301.45 173.97C301.79 174.33 302.03 174.78 302.15 175.26C302.49 176.21 302.76 177.19 302.97 178.18C302.97 178.28 303 178.4 303.02 178.51C303.16 179.6 303.21 180.7 303.17 181.79C303.17 182.68 303.17 183.55 303.11 184.43Z" id="c4QG7NYxO"></path><path d="M315.03 242.06C314.81 242.46 314.58 242.87 314.31 243.28C314.29 243.34 314.25 243.39 314.21 243.44C313.93 243.9 313.64 244.33 313.32 244.76C311.4 247.43 308.96 249.69 306.15 251.41C306.13 251.42 306.02 251.5 306 251.51C305.08 252.06 304.12 252.56 303.14 252.99C302.87 253.11 302.58 253.23 302.3 253.35C302.01 253.46 301.75 253.57 301.47 253.66C301.33 253.72 301.17 253.77 301.03 253.82C301.03 253.82 301.03 253.82 301.03 253.82C301.01 253.82 300.99 253.82 300.98 253.82C300.67 253.93 300.35 254.03 300.03 254.13C300.01 254.13 299.82 254.18 299.79 254.18C299.51 254.27 299.23 254.34 298.94 254.4C297.96 254.65 296.97 254.83 295.96 254.94C295.96 254.94 295.96 254.94 295.96 254.94C294.99 255.06 294.01 255.12 293.03 255.12C292.93 255.12 292.83 255.12 292.73 255.12C291.37 255.12 290.01 254.99 288.67 254.75C288.65 254.74 288.45 254.71 288.43 254.71C288.18 254.66 287.92 254.61 287.68 254.55C287.68 254.55 287.68 254.55 287.68 254.55C287.4 254.49 287.24 254.45 287.21 254.45C286.71 254.34 286.22 254.2 285.73 254.04C284.74 253.74 283.77 253.38 282.83 252.96C282.82 252.96 282.73 252.92 282.72 252.92C281.34 252.29 280.02 251.54 278.77 250.67C278.67 250.61 278.57 250.54 278.47 250.46C267.19 242.42 264.56 226.75 272.6 215.47C280.65 204.18 296.32 201.56 307.6 209.6C314.2 214.31 318.13 221.92 318.13 230.04C318.12 230.04 318.1 230.04 318.07 230.04C317.38 235.59 316.37 239.6 315.03 242.06Z" id="b6OthmWi2"></path><path d="M293.5 229.08C290.74 228.96 288.53 226.75 288.41 223.99C288.41 223.91 288.41 223.82 288.41 223.74C288.41 220.8 290.79 218.42 293.73 218.42C296.67 218.42 299.05 220.8 299.05 223.74C299.05 223.82 299.05 223.91 299.05 223.99C298.93 226.93 296.44 229.21 293.5 229.08Z" id="aQFWZqxxG"></path><path d="M293.5 229.08C290.74 228.96 288.53 226.75 288.41 223.99C288.41 223.91 288.41 223.82 288.41 223.74C291.51 221.21 295.96 221.21 299.05 223.74C299.05 223.82 299.05 223.91 299.05 223.99C298.93 226.93 296.44 229.21 293.5 229.08Z" id="b8zDf9H0A"></path><path d="M293.73 222.31C289.09 222.31 285.32 226.08 285.32 230.72C285.32 235.36 289.09 239.13 293.73 239.13C298.37 239.13 302.14 235.36 302.14 230.72C302.14 226.08 298.37 222.31 293.73 222.31Z" id="b1hY3VLYSK"></path><path d="M293.26 217.54C290.34 217.15 287.66 219.19 287.26 222.11C286.87 225.02 288.91 227.7 291.83 228.1C292.3 228.16 292.78 228.16 293.26 228.1C290.61 227.75 288.63 225.49 288.64 222.82C288.64 220.15 290.61 217.9 293.26 217.54Z" id="bWCtsHHac"></path><path d="M283.34 227.18C283.17 227.34 283 227.5 282.84 227.68C280.84 229.84 280.97 233.21 283.13 235.21C285.29 237.21 288.66 237.08 290.66 234.92C290.71 234.86 290.77 234.79 290.82 234.73C290.98 234.55 291.12 234.37 291.26 234.17C289.24 235.92 286.24 235.9 284.24 234.14C282.24 232.37 281.86 229.39 283.34 227.18Z" id="f1Tf13OA9E"></path><path d="M288.07 241.82C287.37 242.33 287.4 243.34 287.61 244.17C288.08 246.05 289.25 247.86 291.03 248.63C292.14 249.04 293.31 249.21 294.49 249.14C295.76 249.14 297.2 248.97 297.99 247.97C298.35 247.44 298.59 246.84 298.71 246.21C299.1 244.69 299.49 243.12 299.35 241.55C298.58 241.62 297.72 241.66 297.11 241.17C296.5 240.69 296.36 239.76 296.1 238.99C296.07 238.87 296 238.76 295.9 238.68C295.79 238.63 295.66 238.61 295.54 238.63C294.73 238.66 293.92 238.63 293.12 238.52C292.61 238.46 291.39 237.94 291.01 238.38C290.74 238.7 290.91 239.67 290.7 240.12C290.43 240.71 289.94 241.16 289.33 241.38C288.89 241.47 288.47 241.62 288.07 241.82Z" id="c6cSa422Qz"></path><path d="M288.07 241.82C287.37 242.33 287.4 243.34 287.61 244.17C288.08 246.05 289.25 247.86 291.03 248.63C292.14 249.04 293.31 249.21 294.49 249.14C295.76 249.14 297.2 248.97 297.99 247.97C298.35 247.44 298.59 246.84 298.71 246.21C299.1 244.69 299.49 243.12 299.35 241.55C298.58 241.62 297.72 241.66 297.11 241.17C296.5 240.69 296.36 239.76 296.1 238.99C296.07 238.87 296 238.76 295.9 238.68C295.79 238.63 295.66 238.61 295.54 238.63C294.73 238.66 293.92 238.63 293.12 238.52C292.61 238.46 291.39 237.94 291.01 238.38C290.74 238.7 290.91 239.67 290.7 240.12C290.43 240.71 289.94 241.16 289.33 241.38C288.89 241.47 288.47 241.62 288.07 241.82Z" id="azStfWECC"></path><path d="M293.61 228.9C290.37 228.9 287.73 231.53 287.73 234.78C287.73 238.03 290.37 240.66 293.61 240.66C296.86 240.66 299.49 238.03 299.49 234.78C299.49 231.53 296.86 228.9 293.61 228.9Z" id="a18wecnDFA"></path><path d="M306.37 247.68C306.35 247.71 306.15 247.97 306.12 248C304.87 249.5 303.86 251.18 303.12 252.99C302.85 253.11 302.56 253.23 302.28 253.35C301.99 253.46 301.73 253.57 301.45 253.66C301.3 253.72 301.15 253.77 301.01 253.82C301.01 253.82 301.01 253.82 301.01 253.82C300.99 253.82 300.97 253.82 300.96 253.82C300.65 253.93 300.33 254.03 300.01 254.13C299.99 254.13 299.8 254.18 299.77 254.18C299.49 254.27 299.21 254.34 298.92 254.4C297.94 254.65 296.95 254.83 295.94 254.94C295.94 254.94 295.94 254.94 295.94 254.94C294.97 255.06 293.99 255.12 293.01 255.12C292.91 255.12 292.81 255.12 292.7 255.12C291.35 255.12 289.99 254.99 288.65 254.75C288.63 254.74 288.43 254.71 288.41 254.71C288.16 254.66 287.9 254.61 287.66 254.55C287.66 254.55 287.66 254.55 287.66 254.55C287.38 254.49 287.22 254.45 287.19 254.45C286.69 254.34 286.2 254.2 285.71 254.04C285.85 253.19 286.23 252.4 286.8 251.76C285.66 250.4 283.79 249.86 282.57 248.57C282.47 248.45 282.37 248.32 282.28 248.19C282.22 248.09 282.16 247.99 282.12 247.88C282.09 247.79 282.06 247.7 282.06 247.61C282.02 247.42 282 247.23 282.01 247.04C281.98 245.6 282.05 243.96 283.16 243.06C283.71 242.68 284.33 242.4 284.98 242.25C286.11 241.89 287.21 241.45 288.27 240.92C288.37 241.15 288.43 241.39 288.46 241.63C288.56 242.22 288.55 242.84 288.69 243.42C288.96 244.46 289.6 245.36 290.5 245.95C291.39 246.54 292.4 246.91 293.47 247.03C294.51 247.18 295.34 246.64 296.32 246.27C296.76 246.13 297.16 245.91 297.5 245.6C297.95 245.09 298.18 244.43 298.17 243.75C298.17 243.08 298.09 242.42 298.13 241.73C298.13 241.66 298.14 241.59 298.16 241.52C298.16 241.16 298.39 240.84 298.74 240.72C298.93 240.71 299.12 240.74 299.29 240.82C299.48 240.9 300.99 241.48 301.18 241.55C302 241.83 302.8 242.2 303.54 242.64C305.22 243.73 306.31 245.52 306.5 247.51C306.46 247.56 306.42 247.63 306.37 247.68Z" id="cfjq2HQ47"></path><path d="M288.38 254.71C288.13 254.67 287.88 254.62 287.64 254.56C287.64 254.56 287.64 254.56 287.64 254.56C287.35 254.49 287.2 254.46 287.17 254.45C286.67 254.34 286.17 254.21 285.69 254.05C284.7 253.75 283.73 253.39 282.78 252.97C282.31 251.42 282.14 249.8 282.28 248.19C282.34 247.5 282.48 246.82 282.7 246.17C283.77 247.18 285.58 246.61 286.79 247.42C287.11 247.65 287.38 247.95 287.57 248.31C287.9 248.96 288.13 249.66 288.25 250.38C288.32 250.78 288.39 251.18 288.45 251.58C288.45 251.65 288.45 251.71 288.45 251.77C288.45 251.83 288.45 251.89 288.45 251.96C288.49 252.24 288.53 252.54 288.54 252.83C288.63 253.48 288.63 254.11 288.63 254.75C288.58 254.74 288.41 254.71 288.38 254.71Z" id="b4p66tDFHM"></path><path d="M287.64 254.56C287.64 254.56 287.64 254.56 287.64 254.56C287.35 254.49 287.2 254.46 287.17 254.45C286.67 254.34 286.17 254.21 285.69 254.05C284.7 253.75 283.73 253.39 282.78 252.97C282.77 252.96 282.69 252.93 282.68 252.92C282.09 251.22 281.87 249.41 282.03 247.62C282.1 246.97 282.24 246.33 282.45 245.71C283.51 246.72 285.33 246.16 286.53 246.97C287 247.31 287.35 247.77 287.55 248.31C287.74 248.83 287.89 249.37 287.99 249.92C288.1 250.51 288.2 251.1 288.28 251.71C288.29 251.79 288.3 251.87 288.3 251.96C288.3 252.01 288.3 252.09 288.3 252.14C288.3 252.2 288.3 252.28 288.3 252.36C288.4 253.13 288.39 253.92 288.38 254.71C288.13 254.67 287.88 254.62 287.64 254.56Z" id="eCrGi9uRF"></path><path d="M303.12 252.99C302.85 253.11 302.56 253.23 302.28 253.35C301.99 253.46 301.73 253.57 301.45 253.66C301.3 253.72 301.15 253.77 301.01 253.82C301.01 253.82 301.01 253.82 301.01 253.82C300.99 253.82 300.97 253.82 300.96 253.82C300.65 253.93 300.33 254.03 300.01 254.13C299.99 254.13 299.8 254.18 299.77 254.18C299.77 253.73 299.77 253.27 299.83 252.81C299.86 252.45 299.9 252.09 299.95 251.73C299.95 251.66 299.95 251.6 299.98 251.53C299.98 251.49 299.98 251.45 299.98 251.41C300.04 251.06 300.1 250.71 300.17 250.37C300.27 249.64 300.5 248.94 300.85 248.29C301.04 247.95 301.31 247.65 301.63 247.42C302.84 246.61 304.68 247.16 305.69 246.17C305.89 246.76 306.03 247.37 306.1 247.99C306.24 249.16 306.2 250.35 305.98 251.51C305.06 252.06 304.1 252.56 303.12 252.99Z" id="c1Z1LhZaOa"></path><path d="M305.98 251.51C305.06 252.06 304.1 252.56 303.12 252.99C302.85 253.11 302.56 253.23 302.28 253.35C301.99 253.46 301.73 253.57 301.45 253.66C301.3 253.72 301.15 253.77 301.01 253.82C301.01 253.82 301.01 253.82 301.01 253.82C300.99 253.82 300.97 253.82 300.96 253.82C300.65 253.93 300.33 254.03 300.01 254.13C300.01 253.53 300.01 252.94 300.06 252.34C300.06 252.19 300.06 252.03 300.1 251.88C300.1 251.82 300.1 251.74 300.1 251.67C300.1 251.61 300.1 251.56 300.1 251.52C300.18 250.97 300.27 250.44 300.38 249.9C300.48 249.35 300.63 248.81 300.82 248.29C301.02 247.76 301.37 247.29 301.84 246.96C303.04 246.15 304.88 246.7 305.89 245.69C306.11 246.33 306.25 246.99 306.32 247.66C306.45 248.91 306.39 250.18 306.13 251.41C306.1 251.43 306 251.5 305.98 251.51Z" id="b1M0nPV1pO"></path><path d="M300.55 229.25C300.55 231.85 297.39 233.95 293.5 233.95C289.6 233.95 286.44 231.85 286.44 229.25C286.44 226.65 289.6 224.55 293.5 224.55C297.39 224.55 300.55 226.65 300.55 229.25Z" id="bd9mxI9BD"></path><path d="M287.63 254.18C287.63 254.3 287.63 254.41 287.63 254.52C287.63 254.53 287.63 254.54 287.63 254.56C287.63 254.56 287.63 254.56 287.63 254.56C287.35 254.49 287.19 254.46 287.16 254.45C287.15 254.36 287.15 254.27 287.16 254.18C287.16 253.23 287.57 252.33 288.29 251.71C288.34 251.66 288.39 251.61 288.45 251.58C288.72 251.36 289.03 251.19 289.36 251.07C289.66 250.95 289.99 250.89 290.31 250.89C290.36 250.88 290.4 250.88 290.44 250.89C290.53 250.88 290.61 250.88 290.69 250.89C290.67 250.89 290.54 250.89 290.52 250.89C289.74 250.97 289.02 251.33 288.49 251.9C288.43 251.96 288.38 252.02 288.34 252.09C287.93 252.59 287.69 253.2 287.63 253.85C287.63 253.96 287.63 254.07 287.63 254.18Z" id="acWew7oPq"></path><path d="M292.68 255.13C291.32 255.12 289.96 255 288.63 254.75C288.6 254.75 288.41 254.71 288.38 254.71C288.13 254.67 287.88 254.62 287.64 254.56C287.64 254.56 287.64 254.56 287.64 254.56C287.64 254.53 287.64 254.52 287.64 254.52C287.64 254.41 287.64 254.3 287.64 254.18C287.64 254.07 287.64 253.96 287.64 253.85C287.68 253.17 287.91 252.51 288.31 251.96C288.35 251.89 288.4 251.82 288.46 251.77C288.7 251.47 289 251.24 289.35 251.09C289.62 250.96 289.91 250.89 290.2 250.89C290.23 250.89 290.27 250.89 290.3 250.89C290.37 250.89 290.44 250.89 290.51 250.89C291.79 251.11 292.79 252.5 292.79 254.18C292.79 254.5 292.75 254.82 292.68 255.13Z" id="a6XQUkVNA"></path><path d="M301.01 253.82C301.01 253.82 301.01 253.82 301.01 253.82C300.93 253.1 300.62 252.42 300.1 251.9C300.09 251.88 299.97 251.76 299.95 251.75C299.45 251.29 298.81 251 298.14 250.92C298.12 250.92 297.99 250.92 297.97 250.92C298.05 250.91 298.13 250.91 298.2 250.92C298.25 250.91 298.29 250.91 298.34 250.92C298.67 250.93 298.99 250.99 299.3 251.1C299.54 251.19 299.77 251.3 299.99 251.44C300.05 251.47 300.1 251.5 300.14 251.55C300.84 252.05 301.31 252.81 301.45 253.66C301.3 253.72 301.15 253.77 301.01 253.82Z" id="a3nCZTbXS8"></path><path d="M301.01 253.82C300.99 253.82 300.97 253.82 300.96 253.82C300.65 253.93 300.33 254.03 300.01 254.13C299.99 254.13 299.8 254.18 299.77 254.18C299.49 254.27 299.21 254.34 298.92 254.4C297.94 254.65 296.95 254.83 295.94 254.94C295.94 254.94 295.94 254.94 295.94 254.94C295.89 254.69 295.87 254.43 295.87 254.17C295.87 252.49 296.88 251.1 298.15 250.9C298.22 250.9 298.29 250.9 298.36 250.9C298.39 250.9 298.42 250.9 298.45 250.9C298.75 250.9 299.04 250.97 299.31 251.1C299.57 251.21 299.8 251.36 299.99 251.56C300.05 251.6 300.1 251.65 300.14 251.7C300.65 252.3 300.95 253.04 301.01 253.82C301.01 253.82 301.01 253.82 301.01 253.82Z" id="c8THiWdo6b"></path><path d="M286.45 229.02C286.45 229.1 286.45 229.17 286.45 229.25C286.45 231.85 289.61 233.96 293.51 233.96C297.4 233.96 300.56 231.85 300.56 229.25C300.56 229.17 300.56 229.1 300.56 229.02C300.36 231.51 297.27 233.49 293.5 233.49C289.71 233.49 286.63 231.51 286.45 229.02Z" id="a827WJ44ts"></path><path d="M270.93 105.35C271.16 105.76 271.39 106.17 271.65 106.57C271.68 106.63 271.71 106.69 271.76 106.74C272.04 107.18 272.34 107.62 272.67 108.03C273.72 109.5 274.93 110.84 276.29 112.03C276.54 112.27 276.8 112.5 277.08 112.71C277.94 113.44 278.87 114.1 279.83 114.68C279.85 114.69 279.97 114.77 279.98 114.78C280.91 115.34 281.86 115.83 282.84 116.27C282.93 116.31 283.6 116.59 283.69 116.62C283.97 116.74 284.23 116.85 284.52 116.94C284.66 117 284.81 117.05 284.96 117.1C284.96 117.1 284.96 117.1 284.96 117.1L284.96 117.1C285 117.1 285.03 117.1 285.03 117.1C285.34 117.21 285.65 117.31 285.97 117.4C286 117.41 286.18 117.45 286.21 117.46C286.49 117.55 286.78 117.62 287.06 117.68C287.45 117.78 287.83 117.86 288.22 117.94C288.82 118.05 289.43 118.15 290.04 118.22C290.04 118.22 290.04 118.22 290.04 118.22C291.01 118.34 291.99 118.4 292.97 118.4C293 118.4 293.24 118.4 293.27 118.4C294.63 118.39 295.99 118.26 297.33 118.02C297.41 118.01 297.49 117.99 297.57 117.98C297.82 117.94 298.08 117.88 298.31 117.82C298.31 117.82 298.31 117.82 298.31 117.82C298.48 117.79 298.62 117.76 298.79 117.72C299.29 117.61 299.8 117.47 300.27 117.32C300.56 117.22 300.86 117.13 301.15 117.03C301.75 116.82 302.34 116.6 302.91 116.34C302.99 116.31 303.08 116.28 303.16 116.24C303.18 116.23 303.27 116.19 303.28 116.19C304.03 115.85 304.76 115.47 305.47 115.06C306.07 114.71 306.66 114.34 307.22 113.94C307.23 113.94 307.26 113.94 307.26 113.94C307.35 113.89 307.44 113.83 307.52 113.76C318.81 105.73 321.46 90.06 313.42 78.77C305.39 67.48 289.73 64.84 278.43 72.87C271.81 77.58 267.88 85.21 267.89 93.34C267.88 97.53 268.92 101.66 270.93 105.35Z" id="b1zPB21NX9"></path><path d="M299.29 104.52C298.56 104.71 297.81 104.35 297.13 104.01C295.03 103.03 292.8 102.31 290.51 101.88C290.33 101.86 290.15 101.8 290 101.69C289.77 101.37 289.78 100.93 290.03 100.62C290.29 100.36 290.76 100.4 291.11 100.38C293.89 100.24 296.59 101.29 298.55 103.26C298.55 103.26 298.55 103.27 298.55 103.28C298.97 103.79 299.22 104.2 299.29 104.52Z" id="b6KPu7UIk"></path><path d="M289.46 102.95C289.05 103.1 288.61 103.12 288.19 103.24C287.76 103.33 287.4 103.62 287.21 104.01C287.16 104.19 287.13 104.38 287.14 104.56C287.07 106.31 287.02 108.11 287.72 109.73C288.32 111.12 289.43 112.21 290.52 113.25C291.8 114.47 293.15 115.71 294.83 116.26C295.82 116.58 296.98 116.61 297.79 115.98C298.11 115.7 298.39 115.38 298.62 115.02C299.19 114.28 299.66 113.46 300.04 112.6C300.73 110.82 300.5 108.82 300.26 106.92C300.25 106.81 300.21 106.7 300.13 106.62C300.03 106.55 299.9 106.53 299.78 106.56C298.89 106.65 298.04 106.16 297.67 105.34C297.56 104.98 297.52 104.6 297.55 104.23C297.55 104.01 297.58 102.27 297.59 102.06C297.6 101.83 297.57 101.59 297.5 101.37C297.3 101.01 296.98 100.73 296.6 100.58C295.41 99.99 294.18 99.5 292.91 99.13C292.35 98.97 291.92 98.69 291.68 99.29C291.43 99.89 291.43 100.63 291.14 101.26C290.83 102.03 290.23 102.64 289.46 102.95Z" id="bHEO00u6u"></path><path d="M289.46 102.95C289.05 103.1 288.61 103.12 288.19 103.24C287.76 103.33 287.4 103.62 287.21 104.01C287.16 104.19 287.13 104.38 287.14 104.56C287.07 106.31 287.02 108.11 287.72 109.73C288.32 111.12 289.43 112.21 290.52 113.25C291.8 114.47 293.15 115.71 294.83 116.26C295.82 116.58 296.98 116.61 297.79 115.98C298.11 115.7 298.39 115.38 298.62 115.02C299.19 114.28 299.66 113.46 300.04 112.6C300.73 110.82 300.5 108.82 300.26 106.92C300.25 106.81 300.21 106.7 300.13 106.62C300.03 106.55 299.9 106.53 299.78 106.56C298.89 106.65 298.04 106.16 297.67 105.34C297.56 104.98 297.52 104.6 297.55 104.23C297.55 104.01 297.58 102.27 297.59 102.06C297.6 101.83 297.57 101.59 297.5 101.37C297.3 101.01 296.98 100.73 296.6 100.58C295.41 99.99 294.18 99.5 292.91 99.13C292.35 98.97 291.92 98.69 291.68 99.29C291.43 99.89 291.43 100.63 291.14 101.26C290.83 102.03 290.23 102.64 289.46 102.95Z" id="ftroKtkRz"></path><path d="M297.01 89.78C293.35 89.78 290.39 92.75 290.39 96.4C290.39 100.06 293.35 103.02 297.01 103.02C300.66 103.02 303.63 100.06 303.63 96.4C303.63 92.75 300.66 89.78 297.01 89.78Z" id="c6KgJtACX"></path><path d="M290.03 118.25C290.03 118.25 290.03 118.25 290.03 118.25C291 118.37 291.98 118.43 292.96 118.43C292.99 118.43 293.23 118.43 293.26 118.43C294.62 118.42 295.98 118.29 297.32 118.05C297.4 118.04 297.48 118.03 297.56 118.01C297.81 117.97 298.07 117.92 298.3 117.85C298.3 117.85 298.3 117.85 298.3 117.85C298.47 117.82 298.61 117.79 298.78 117.75C299.28 117.64 299.79 117.5 300.26 117.35C300.55 117.25 300.85 117.16 301.14 117.06C301.74 116.85 302.33 116.63 302.9 116.37C302.75 115.92 302.63 115.47 302.54 115C302.37 114.01 302.31 113.01 302.34 112C302.34 111.2 302.38 110.39 302.34 109.59C302.36 108.94 302.26 108.3 302.07 107.68C301.86 107.05 301.42 106.54 300.83 106.24C300.07 105.91 298.94 105.74 298.19 106.11C298.11 106.16 298.03 106.21 297.95 106.27C297.79 106.41 297.66 106.58 297.59 106.78C297.34 107.38 297.08 108 296.85 108.61C296.7 109.03 296.5 109.43 296.25 109.81C295.5 110.83 294.18 111.26 292.97 110.89C292.9 110.87 292.83 110.84 292.76 110.81C291.74 110.39 290.81 109.51 289.76 109.75C289.16 109.9 288.67 110.33 288.43 110.89C288.42 110.92 288.41 110.95 288.4 110.98C288.18 111.51 288.06 112.07 288.03 112.64C287.88 114.42 287.94 116.21 288.21 117.97C288.81 118.08 289.42 118.18 290.03 118.25Z" id="b1N6d21ppT"></path><path d="M277.08 112.73C277.94 113.45 278.87 114.11 279.83 114.7C279.85 114.71 279.97 114.79 279.98 114.8C280.91 115.35 281.86 115.85 282.84 116.29C282.93 116.32 283.6 116.6 283.69 116.64C283.97 116.75 284.23 116.87 284.52 116.96C284.66 117.01 284.81 117.06 284.96 117.11C284.96 117.11 284.96 117.11 284.96 117.11L284.96 117.11C285 117.11 285.03 117.11 285.03 117.11C285.34 117.23 285.65 117.33 285.97 117.42C286 117.42 286.18 117.47 286.21 117.47C286.49 117.56 286.78 117.64 287.06 117.69C287.45 117.79 287.83 117.88 288.22 117.95C288.82 118.07 289.43 118.17 290.04 118.24C290.04 118.24 290.04 118.24 290.04 118.24C291.01 118.36 291.99 118.41 292.97 118.41C293 118.41 293.24 118.41 293.27 118.41C294.63 118.4 295.99 118.28 297.33 118.03C297.41 118.02 297.49 118.01 297.57 117.99C297.82 117.95 298.08 117.9 298.31 117.84C298.31 117.84 298.31 117.84 298.31 117.84C298.48 117.81 298.62 117.77 298.79 117.73C299.29 117.62 299.8 117.49 300.27 117.33C300.56 117.24 300.86 117.14 301.15 117.04C301.75 116.84 302.34 116.61 302.91 116.36C302.99 116.33 303.08 116.29 303.16 116.25C303.18 116.25 303.27 116.21 303.28 116.2C304.03 115.86 304.76 115.49 305.47 115.07C305.96 113.75 306.39 112.39 306.73 111.02C306.73 110.99 306.73 110.96 306.73 110.94C305.94 109.53 305.24 108.07 304.46 106.67C304 105.59 303.01 104.84 301.85 104.7C301.3 104.52 300.73 104.42 300.15 104.39C299.82 104.36 299.5 104.3 299.18 104.22C298.52 104.08 297.79 103.93 297.54 104.22C297.54 104.22 297.54 104.22 297.54 104.22C297.52 104.24 297.51 104.26 297.51 104.29C297.42 104.63 297.46 104.99 297.63 105.3C297.74 105.62 297.88 105.96 297.96 106.23C298.01 106.36 298.03 106.5 298.04 106.63C298.05 107.23 298.03 107.82 297.98 108.41C297.83 109.27 297.36 110.03 297.13 110.87C297.03 111.27 296.98 111.68 296.92 112.08C296.78 112.98 296.54 113.87 296.21 114.72C296.15 114.9 296.07 115.08 295.95 115.23C295.54 115.74 294.85 115.54 294.19 115.45C293.72 115.04 293.74 114.32 293.69 113.71C293.55 112.69 293.24 111.7 292.77 110.78C292.75 110.75 292.61 110.46 292.59 110.42C292.09 109.37 291.58 108.33 291.1 107.27C290.49 105.97 289.86 104.47 290.36 103.12C290.51 102.71 290.75 102.35 290.91 101.96C290.94 101.9 290.96 101.85 290.98 101.78C291.02 101.63 291.05 101.48 291.05 101.32C291.09 101.04 291 100.76 290.82 100.54C290.79 100.5 290.76 100.46 290.72 100.43C290.7 100.41 290.68 100.4 290.66 100.39C290.32 100.2 289.91 100.18 289.55 100.34C289.35 100.41 289.16 100.5 288.97 100.6C287.97 101.16 287.02 101.78 286.1 102.46C285.83 102.62 285.62 102.86 285.5 103.15C285.48 103.35 285.44 103.54 285.4 103.73C285.26 104.09 284.83 104.19 284.46 104.27C281.37 104.99 278.71 106.94 277.1 109.68C276.83 110.12 276.62 110.58 276.47 111.07C276.38 111.39 276.32 111.72 276.29 112.05C276.54 112.29 276.8 112.51 277.08 112.73Z" id="ch3L8vuEb"></path><path d="M296.31 93.6C296.31 93.57 296.32 93.4 296.35 93.09C295.27 93.48 294.67 93.69 294.55 93.74C295.02 93.39 295.42 92.96 295.73 92.47C295.47 92.28 295.13 92.26 294.85 92.41C294.58 92.57 294.36 92.79 294.2 93.06C293.16 94.61 292.92 96.56 293.55 98.32C293.17 98.51 292.73 98.48 292.39 98.25C292.05 98.02 291.79 97.69 291.64 97.3C291.53 97.06 291.42 96.8 291.17 96.7C290.94 96.65 290.71 96.75 290.6 96.95C290.5 97.15 290.45 97.38 290.48 97.6C290.52 98.11 290.9 98.61 290.99 99.12C291.08 99.63 291.83 100.03 291.43 100.37C290.97 100.54 290.49 100.66 289.99 100.71C289.8 100.65 289.64 100.5 289.58 100.3C289.18 99.42 289.32 98.39 289.07 97.45C288.84 96.71 288.49 96.01 288.03 95.38C287.92 95.19 287.78 95.01 287.63 94.85C287.47 94.73 287.34 94.58 287.25 94.41C287.18 94.22 287.31 93.95 287.5 93.99C287.19 93.69 286.85 93.41 286.49 93.16C286.84 92.71 287.19 92.26 287.5 91.8C287.62 91.64 287.74 91.44 287.65 91.26C287.6 91.18 287.53 91.11 287.45 91.07C287.36 91.01 286.64 90.52 286.55 90.46C286.55 90.03 287.4 90.19 287.53 89.79C287.56 89.68 287.56 89.57 287.53 89.46C287.51 89.39 287.4 89.01 287.22 88.32C287.93 88.64 288.33 88.83 288.41 88.86C288.55 88.94 288.71 88.98 288.87 88.97C289.18 88.92 289.33 88.55 289.38 88.23C289.34 87.91 289.38 87.59 289.5 87.29C290.04 87.29 290.58 87.29 291.12 87.29C291.15 87.02 291.08 86.75 290.92 86.53C291.32 86.5 294.52 86.32 294.91 86.3C295.59 86.22 296.28 86.27 296.94 86.44C297.15 86.54 297.38 86.6 297.62 86.6C297.84 86.6 298.08 86.36 298.01 86.13C298.61 86.47 299.16 86.89 299.64 87.39C299.77 87.54 299.92 87.67 300.1 87.77C300.28 87.86 300.5 87.84 300.66 87.7C300.77 87.58 300.82 87.38 300.99 87.37C301.15 87.36 301.17 87.45 301.23 87.52C301.46 87.82 301.64 88.14 301.78 88.49C302.07 88.45 302.35 88.37 302.62 88.26C302.36 88.54 302.3 88.94 302.47 89.28C302.6 89.62 302.84 89.91 303 90.23C303.16 90.58 303.27 90.95 303.32 91.33C303.4 91.81 303.4 92.41 302.98 92.65C302.58 92.79 302.12 92.69 301.82 92.38C300.85 91.69 300.67 91.9 299.92 92.67C299.02 93.58 297.59 93.62 296.31 93.6Z" id="i5p3VidsM"></path><path d="M279.83 114.7C279.85 114.71 279.97 114.79 279.98 114.8C280.91 115.35 281.86 115.85 282.84 116.29C282.93 116.32 283.6 116.6 283.69 116.64C283.97 116.75 284.23 116.87 284.52 116.96C284.66 117.01 284.81 117.06 284.96 117.11C284.96 117.11 284.96 117.11 284.96 117.11C284.96 117.11 284.96 117.11 284.96 117.11C284.78 116.61 284.67 116.1 284.51 115.59C284.09 114.24 283.34 113.01 282.34 112.02C281.46 111.14 280.08 109.87 278.79 110.64C278.4 110.91 278.05 111.24 277.78 111.62C277.53 111.9 277.32 112.21 277.15 112.55C277.12 112.59 277.1 112.65 277.08 112.73C277.94 113.45 278.87 114.11 279.83 114.7Z" id="aKkAvnd7q"></path><path d="M302.93 116.37C303.02 116.34 303.1 116.3 303.19 116.26C303.2 116.26 303.29 116.22 303.3 116.21C304.05 115.87 304.78 115.5 305.49 115.08C306.09 114.74 306.68 114.36 307.24 113.97C307.25 113.97 307.28 113.97 307.28 113.97C307.23 113.4 307.23 112.83 307.28 112.27C307.31 112.08 307.3 111.89 307.24 111.7C307.17 111.56 307.08 111.42 306.96 111.31C306.89 111.24 306.82 111.16 306.75 111.07C306.18 110.43 305.71 109.74 304.73 109.84C303.74 109.94 302.89 110.79 302.47 111.74C302.43 111.83 302.39 111.92 302.36 112.02C302.08 112.9 301.86 113.8 301.7 114.71C301.57 115.27 301.4 115.82 301.28 116.38C301.25 116.59 301.2 116.82 301.17 117.05C301.77 116.85 302.36 116.62 302.93 116.37Z" id="b1gYizAsqu"></path><path d="M186.93 266.37L186.71 266.49L186.93 266.37L186.93 266.37Z" id="l6PdjsbI"></path><linearGradient id="gradientaCbZJ3BWV" gradientUnits="userSpaceOnUse" x1="186.82" y1="266.49" x2="186.82" y2="266.37"><stop style="stop-color: #808080;stop-opacity: 0.25" offset="0%"></stop><stop style="stop-color: #808080;stop-opacity: 0.12" offset="54%"></stop><stop style="stop-color: #808080;stop-opacity: 0.1" offset="100%"></stop></linearGradient><path d="M157.19 257.86C157.89 260.81 158.36 263.81 158.58 266.84C160.96 267.24 163.4 267.19 165.77 266.68C165.6 265.83 164.22 259.11 164.05 258.27C165.28 253.29 164.05 239.98 164.05 239.98C164.05 239.98 166.83 234.83 167.09 226.99C167.33 219.28 169.23 216.79 169.29 216.71C169.29 216.71 169.29 216.71 169.29 216.71C173.21 218.73 178.19 240.63 178.19 240.63C177.78 245.94 178.27 254.1 179.91 258.51C180.9 261.31 181.31 264.28 181.13 267.25C181.77 267.71 182.59 267.86 183.35 267.67C185.68 267.3 188.48 265.29 188.48 265.29C188.48 265.29 187.58 241.47 186.93 240.55C186.28 239.63 186.93 234.51 186.93 234.51C186.82 233.68 185.97 227.01 185.87 226.18C185.87 226.18 186.03 212.05 184.48 209.61C183.14 207.49 182.83 203.77 182.77 202.8C182.77 202.64 182.77 202.56 182.77 202.56C182.53 202.27 180.64 200.01 180.41 199.72C180.41 199.72 157.55 198.01 155.83 199.72C155.41 200.15 155.15 201.1 154.99 202.31C154.52 206.01 155.06 212.05 155.06 212.05C155.06 212.05 155.75 216.54 156.73 221.12C157.32 223.86 157.32 226.7 156.73 229.45C157.04 232.66 156.73 235.9 155.8 239C153.85 244.63 156.13 253.78 157.19 257.86Z" id="b2AxC1jwhz"></path><path d="M165.25 275.15C165.88 274.9 165.83 273.72 165.67 272.52C165.56 271.75 165.4 270.96 165.34 270.39C165.17 268.92 165.84 265.94 165.84 265.94C165.84 265.94 164.49 267.37 164.17 265.94C164.02 265.39 163.57 264.96 163 264.84C162.31 264.62 161.55 264.67 160.89 264.97C159.82 265.42 158.05 266.41 158.35 267.73C158.8 269.61 157.21 272.3 157.21 272.3C156.61 273.04 156.61 274.09 157.21 274.83C157.21 274.83 157.21 274.82 157.21 274.8C161.89 275.32 164.58 275.43 165.25 275.15Z" id="b1YZFuOZgb"></path><path d="M165.25 275.15C165.88 274.9 165.83 273.72 165.67 272.52C165.02 272.82 163.92 273.07 162.12 272.9C161.69 272.86 161.26 272.85 160.84 272.86C159.54 272.92 158.23 272.89 156.94 272.78C156.64 273.45 156.75 274.23 157.21 274.8C158.23 276.15 164.24 275.57 165.25 275.15Z" id="c2uT4vMGvS"></path><path d="M179.87 258.51C180.86 261.31 181.28 264.28 181.1 267.25C181.74 267.71 182.55 267.86 183.32 267.67C182.81 264.23 180.73 249.39 179.38 237.67C178.4 229.55 175.42 221.81 170.69 215.14C170.54 215.29 169.4 216.55 169.26 216.71C173.18 218.75 178.16 240.63 178.16 240.63C177.75 245.94 178.24 254.1 179.87 258.51Z" id="b4R7C4UhmM"></path><path d="M160.68 159.72L165.56 167.92C169.18 166.38 171.18 165.53 171.58 165.35C171.58 165.35 179.77 156.78 174.63 155.55C174.01 155.42 173.43 155.17 172.92 154.79C172.02 154.08 171.53 152.98 171.58 151.84C171.62 150.62 171.91 149.43 172.42 148.33C171.37 148 162.94 145.36 161.88 145.03C162.32 146.41 162.57 147.85 162.64 149.3C162.72 152.16 161.65 153.58 160.78 154.25C160.45 154.51 160.07 154.71 159.66 154.82C159.8 155.47 160.14 157.11 160.68 159.72Z" id="d11QljBNHm"></path><path d="M162.64 149.3C162.83 149.52 163.03 149.74 163.25 149.94C164.79 151.42 166.84 152.25 168.98 152.25C169.85 152.25 170.72 152.11 171.55 151.84C171.59 150.62 171.88 149.43 172.39 148.33C171.69 148.11 168.19 147.01 161.88 145.03C162.34 146.91 162.59 148.33 162.64 149.3Z" id="b7NHa0QYQ"></path><path d="M168.98 152.01C173.59 152.01 177.32 148.29 177.32 143.68C177.32 139.08 173.6 135.35 168.99 135.35C168.99 135.35 168.98 135.35 168.98 135.35C164.4 135.33 160.68 139.02 160.66 143.6C160.66 143.62 160.66 143.65 160.66 143.67C160.66 148.28 164.38 152.01 168.98 152.01Z" id="b96rmjloi"></path><path d="M160.68 159.72L165.56 167.92C169.18 166.38 171.18 165.53 171.58 165.35C171.58 165.35 179.77 156.78 174.63 155.55C174.01 155.42 173.43 155.17 172.92 154.79C173.84 157.33 170.01 162.66 170.01 162.66C169.57 163.31 168.54 162.9 168.54 162.9C166.07 162.53 161.52 155.43 160.78 154.25C160.45 154.51 160.07 154.7 159.66 154.82C159.8 155.47 160.14 157.11 160.68 159.72Z" id="aWn2ZaDcT"></path><path d="M167.46 203.96C170.81 203.45 177.32 203.14 177.32 203.14C177.32 203.14 181.46 203.36 182.73 202.78C182.73 202.63 182.73 202.54 182.73 202.54C182.5 202.26 180.61 199.99 180.37 199.71C180.37 199.71 157.51 198 155.79 199.71C155.36 200.15 155.1 201.1 154.95 202.29C156.4 202.62 164.42 204.4 167.46 203.96Z" id="b4jLAEowYk"></path><path d="M172.67 154.61C173.4 154.91 179.22 157.3 179.95 157.6C179.95 157.6 184.33 157.06 185.91 163.6C186.16 164.69 186.26 165.81 186.18 166.92C186.14 168.65 186.55 170.36 187.38 171.88C189.18 175.48 188.77 183.72 185.1 184.55C181.42 185.38 180.11 184.96 180.11 184.96C180.11 184.96 180.62 199.9 182.73 201.61C184.84 203.33 177.32 202.92 177.32 202.92C177.32 202.92 170.81 203.25 167.46 203.74C164.11 204.23 154.72 202.02 154.72 202.02C154.72 202.02 156.11 195.74 156.6 191.73C157.09 187.73 158.24 179.22 158.24 179.22C157.4 178.09 150.74 169.06 149.9 167.93C149.9 167.93 148.43 161.12 153.58 158.1C158.72 155.08 160.67 154.33 160.67 154.33C160.67 154.33 165.84 162.75 168.54 163.16C168.52 163.15 169.55 163.56 169.99 162.9C170.53 161.24 174.3 156.94 172.67 154.61Z" id="a23oBCXf3j"></path><path d="M179.14 169.03C178.64 170.09 176.85 175.97 176.85 175.97C177.26 175.97 180.52 175.97 180.93 175.97C180.93 175.97 178.72 173.6 178.9 172.45C179.08 171.31 179.55 165.27 179.55 165.27C179.46 166.02 179.63 167.96 179.14 169.03Z" id="c2grxsFJ92"></path><path d="M177.32 181.52C178.16 179.64 180.47 175.43 180.47 175.43C180.41 175.35 180.09 174.92 179.52 174.15C176.89 176.22 175.43 177.36 175.14 177.59C175.14 177.59 169.91 181.76 167.46 182.15C165.01 182.55 167.46 185.6 167.46 185.6C169.43 184.78 176.47 183.4 177.32 181.52Z" id="b15H8etqzX"></path><path d="M177.32 181.52C178.16 179.64 180.47 175.43 180.47 175.43C180.41 175.35 180.09 174.92 179.52 174.15C176.89 176.22 175.43 177.36 175.14 177.59C175.14 177.59 169.91 181.76 167.46 182.15C165.01 182.55 167.46 185.6 167.46 185.6C169.43 184.78 176.47 183.4 177.32 181.52Z" id="g2w5VhFIHY"></path><path d="M159.66 179.88C160.14 179.88 160.4 179.88 160.45 179.88C164.33 179.88 168.15 180.87 171.55 182.75C171.65 182.81 172.14 183.08 173.02 183.57L173.42 183.79L175.95 178.09L173.59 175.97C173.51 175.97 173.47 175.97 173.46 175.97C172.88 176.02 170.38 176.24 169.32 175.88C168.26 175.52 167.06 174.45 164.08 175.21C162.62 175.58 161.37 177.23 159.95 176.73C159.93 176.61 159.84 176.03 159.66 174.99L159.66 179.88Z" id="dUX0QCTDg"></path><path d="M150.15 167.92C150.15 170.61 150.15 172.1 150.15 172.39C150.15 172.39 151.54 186.44 155.95 187.99C160.36 189.54 168.23 187.09 168.23 187.09C168.23 187.09 170.26 181.7 169.31 181.37C168.36 181.04 160.91 179.08 160.91 179.08C160.91 179.08 161.01 170.84 159.39 168.4C159.39 168.4 160.45 160.72 156.78 160.56C153.1 160.39 151.78 166.09 151.78 166.09C151.57 166.33 151.02 166.95 150.15 167.92Z" id="d6lJPrO40"></path><path d="M149.9 167.92C149.9 170.61 149.9 172.1 149.9 172.39C149.9 172.39 151.29 186.44 155.7 187.99C160.11 189.54 167.97 187.09 167.97 187.09C167.97 187.09 169.99 181.7 169.05 181.37C168.11 181.04 160.64 179.08 160.64 179.08C160.64 179.08 160.75 170.84 159.12 168.4C159.12 168.4 160.18 160.72 156.51 160.56C152.83 160.39 151.54 166.09 151.54 166.09C151.32 166.33 150.78 166.95 149.9 167.92Z" id="c4i2EnoVwd"></path><path d="M163.13 145.63C163.34 145.12 163.87 144.81 164.42 144.88C165.12 145.04 165.43 145.95 166.11 146.17C166.72 146.29 167.33 145.97 167.59 145.4C167.82 144.84 167.92 144.23 167.87 143.62C167.87 142.95 167.87 142.26 167.87 141.6C167.87 140.93 167.9 140.05 168.35 139.47C168.92 138.74 170.26 138.42 171.15 138.45C171.75 138.46 172.32 138.69 172.75 139.1C173.19 139.54 173.81 139.76 174.43 139.7C174.99 139.61 175.44 139.22 175.61 138.68C175.61 138.67 175.61 138.67 175.61 138.66C172.83 134.99 167.61 134.28 163.94 137.06C160.28 139.84 159.56 145.06 162.34 148.73C162.61 149.08 162.9 149.41 163.22 149.71C163.08 148.88 162.99 148.05 162.94 147.21C162.87 146.68 162.94 146.13 163.13 145.63Z" id="k26T7oPjr5"></path><path d="M175.62 138.44C175.68 138.18 175.67 137.89 175.75 137.63C175.94 136.99 176.62 136.66 177.08 136.17C178 135.19 177.94 133.58 177.29 132.41C176.78 131.47 175.77 130.67 174.68 130.85C174.02 130.97 173.44 131.44 172.78 131.48C172.13 131.44 171.51 131.23 170.96 130.89C169.54 130.25 167.95 130.11 166.44 130.49C165.98 130.59 165.55 130.8 165.2 131.12C164.96 131.42 164.74 131.73 164.54 132.05C163.77 133.02 162.41 133.21 161.2 133.43C159.99 133.65 158.62 134.13 158.22 135.3C157.95 136.07 158.22 136.91 158.36 137.72C158.41 137.88 158.4 138.06 158.33 138.22C158.14 138.54 157.66 138.4 157.31 138.48C156.63 138.62 156.45 139.49 156.43 140.21C156.4 141.02 156.38 141.83 156.36 142.63C156.27 143.39 156.56 144.15 157.13 144.66C157.4 144.98 159.55 147.57 159.82 147.9C161.02 149.34 162.29 151.01 162.05 152.86C162.61 153.12 163.28 152.62 163.47 152.03C163.6 151.42 163.57 150.79 163.38 150.19C163.16 149.14 163.02 148.08 162.95 147C162.88 146.47 162.95 145.92 163.14 145.42C163.35 144.9 163.88 144.6 164.43 144.67C165.13 144.83 165.45 145.74 166.12 145.96C166.73 146.08 167.35 145.76 167.6 145.2C167.84 144.63 167.93 144.02 167.88 143.42C167.88 143.21 167.88 141.59 167.88 141.39C167.88 140.65 167.91 139.87 168.37 139.26C168.94 138.54 170.28 138.22 171.17 138.25C171.76 138.26 172.33 138.49 172.77 138.89C173.21 139.32 173.83 139.53 174.44 139.45C175 139.37 175.45 138.97 175.62 138.44Z" id="a3QkNJrWLd"></path><path d="M170.03 175.57C170.03 175.57 167.99 175.56 172.56 165.07C172.06 167.17 170.28 174.52 170.03 175.57Z" id="e3QbjeLqs1"></path><path d="M165.85 174.46C165.79 174.47 165.29 174.5 165.23 174.51C165.23 174.51 166.36 171.89 163.83 163.31C164.23 165.54 167.18 168.8 165.85 174.46Z" id="b1cJNTOrxP"></path><path d="M157.29 196.13C157.29 196.13 158.07 193.97 161.7 194.34C160.82 194.7 157.59 192.98 157.29 196.13Z" id="b13Jik7ayx"></path><path d="M172.93 184.21C175.24 185.03 177.69 185.36 180.13 185.19C180.16 184.59 180.33 181.6 180.64 176.21L173.59 176.21C174.13 180.02 173.91 182.69 172.93 184.21Z" id="c1xldXfzNQ"></path><path d="M173.43 183.79L175.96 178.09L173.6 175.97L173.47 175.97C173.47 175.97 173.47 175.97 173.47 175.97C173.5 176.24 174.16 181.15 173.03 183.57C173.09 183.6 173.22 183.67 173.43 183.79Z" id="a4bQPxExK"></path><path d="M172.93 183.97C175.24 184.78 177.69 185.11 180.13 184.95C180.32 184.35 181.27 181.35 182.99 175.97L173.59 175.97C174.13 179.78 173.91 182.45 172.93 183.97Z" id="c5qvAPpTK"></path><path d="M182.22 272.94C184.44 273.27 189.78 274.11 191.13 274.76C192.84 275.57 199.62 275 199.94 274.19C200.04 273.86 199.99 273.51 199.83 273.21C199.6 272.71 199.21 272.29 198.73 272.03C198.57 271.94 198.4 271.87 198.23 271.81C196.95 271.38 194.54 270.48 193.89 269.53C193.89 269.53 190.88 266.9 190.03 265.48C189.7 264.91 189.11 264.54 188.46 264.5C187.74 264.47 186.93 264.83 186.62 266.4C186.62 266.4 182.7 268.63 181.64 266.67C181.64 266.67 181.48 269.68 180.83 270.51C180.83 270.51 180.83 270.51 180.83 270.51C180.66 270.74 180.59 271.04 180.64 271.32C180.73 272.16 181.39 272.83 182.22 272.94Z" id="atBY78T9v"></path><path d="M182.22 272.94C184.44 273.27 189.78 274.11 191.13 274.76C192.84 275.57 199.62 275 199.94 274.19C200.04 273.86 199.99 273.51 199.83 273.21C199.6 272.71 199.21 272.29 198.73 272.03C197.63 272.76 195.19 273.48 189.78 272.64C184.63 271.83 182.08 271.04 180.84 270.51C180.84 270.51 180.84 270.51 180.84 270.51C180.67 270.74 180.6 271.04 180.64 271.32C180.73 272.16 181.39 272.83 182.22 272.94Z" id="b17q7MpAQ0"></path><path d="M158.37 137.78C158.21 137.17 158.13 136.55 158.12 135.92C158.16 136.43 158.23 136.93 158.34 137.43C158.37 137.55 158.38 137.68 158.37 137.81C158.37 137.8 158.37 137.79 158.37 137.78Z" id="a6bh43KK4q"></path><path d="M162.93 146.39C162.89 145.95 162.96 145.5 163.13 145.09C163.34 144.58 163.87 144.27 164.42 144.34C165.12 144.5 165.44 145.41 166.11 145.63C166.72 145.75 167.34 145.44 167.59 144.87C167.83 144.3 167.92 143.69 167.87 143.09C167.87 142.41 167.87 141.72 167.87 141.06C167.87 140.4 167.9 139.51 168.36 138.93C168.93 138.21 170.27 137.89 171.16 137.92C171.75 137.92 172.32 138.15 172.76 138.56C173.2 139 173.82 139.22 174.44 139.16C174.99 139.08 175.45 138.68 175.61 138.15C175.68 137.88 175.66 137.6 175.74 137.34C175.93 136.7 176.62 136.36 177.07 135.88C177.5 135.4 177.75 134.79 177.76 134.15C177.83 134.92 177.58 135.67 177.07 136.25C176.62 136.75 175.93 137.07 175.74 137.7C175.66 137.97 175.68 138.25 175.61 138.51C175.45 139.05 174.99 139.44 174.44 139.52C173.81 139.59 173.2 139.37 172.76 138.92C172.32 138.51 171.75 138.28 171.16 138.28C170.27 138.25 168.93 138.57 168.36 139.29C167.9 139.87 167.88 140.68 167.87 141.42C167.87 142.16 167.87 142.78 167.87 143.45C167.92 144.05 167.83 144.66 167.59 145.22C167.34 145.79 166.72 146.11 166.11 145.99C165.43 145.77 165.12 144.86 164.42 144.7C163.87 144.63 163.34 144.94 163.13 145.45C163 145.75 162.93 146.07 162.93 146.39Z" id="c2aMlYMluv"></path><path d="M157.12 144.33C157.39 144.66 159.54 147.25 159.81 147.57C160.95 148.94 162.15 150.51 162.06 152.25C161.98 150.66 160.87 149.21 159.81 147.94C159.54 147.61 157.39 145.02 157.12 144.7C156.55 144.19 156.26 143.43 156.35 142.67C156.35 142.85 156.37 143.03 156.42 143.21C156.57 143.63 156.81 144.01 157.12 144.33Z" id="blk8b0aqO"></path><path d="M163.54 151.27C163.56 151.54 163.54 151.81 163.46 152.07C163.27 152.67 162.6 153.16 162.04 152.9C162.05 152.78 162.06 152.66 162.06 152.54C162.68 152.69 163.3 152.32 163.46 151.71C163.51 151.56 163.53 151.42 163.54 151.27Z" id="j5OKLGhOs5"></path><path d="M190.59 266.22C190.59 266.22 189.74 267.74 186.65 266.4" id="oE1knBVh9"></path><path d="M164.44 266.58C164.44 266.58 161.78 269.73 158.42 267.6" id="e1gYeP1o93"></path><path d="M158.63 231.3C158.7 231.97 157.66 230.79 157.66 230.79C157.59 230.7 157.27 230.25 156.69 229.45C157.94 230.23 158.59 230.85 158.63 231.3Z" id="a2GRdXHLj"></path><path d="M158.26 239.38C159.67 239.44 159.55 241.28 158.63 240.73C157.68 240.05 156.78 239.29 155.94 238.47C156.59 239.02 157.41 239.34 158.26 239.38Z" id="b3b9rk9jbG"></path><path d="M155.58 239.65C155.58 239.65 156.49 244.09 157.22 243.24" id="a6ONaWoYRO"></path><path d="M61.72 266.26C62.75 264.37 60.5 261.27 59.79 260.37C59.72 260.29 59.21 259.65 59.15 259.57C57.14 257.08 54.86 254.25 54.92 250.48C55.02 244.81 60.09 241.67 64.17 239.14C64.25 239.09 64.83 238.73 64.91 238.68C67.6 237 70.1 234.99 72.32 232.72C73.17 231.92 73.81 231.06 74.29 230.11C74.78 229 74.79 227.46 74.74 225.57C74.57 219.11 74.25 212.59 73.78 206.18C74.29 206.15 78.38 205.85 78.89 205.81C79.36 212.3 79.69 218.9 79.86 225.44C79.91 227.34 79.97 229.94 78.91 232.31C78.11 233.9 77.12 235.23 75.9 236.37C73.47 238.86 70.66 241.12 67.62 243.02C67.55 243.07 66.95 243.44 66.87 243.49C63.54 245.55 60.09 247.69 60.04 250.57C60.01 252.48 61.53 254.36 63.14 256.36C63.2 256.44 63.74 257.11 63.8 257.19C67.12 261.39 67.98 265.47 66.22 268.71C65.32 268.22 62.17 266.5 61.72 266.26Z" id="bEVyU3eP3"></path><path d="M80.14 199.82C80.03 200.03 79.5 201.07 78.55 202.96C78.58 200.68 78.59 199.41 78.6 199.15C74.83 198.05 70.89 200.21 69.8 203.97C68.7 207.73 70.86 211.67 74.62 212.77C78.38 213.87 82.32 211.71 83.42 207.95C83.63 207.2 83.73 206.42 83.69 205.64C83.69 205.64 83.69 205.64 83.69 205.64C82.72 202.56 81.54 200.62 80.14 199.82Z" id="a1AbpaocHL"></path><path d="M61.45 256.83C57.96 255.04 56.6 250.76 58.39 247.28C60.19 243.79 64.47 242.43 67.95 244.22C69.52 245.03 70.73 246.4 71.35 248.06C71.05 248.3 69.57 249.5 66.9 251.67C69.84 250.99 71.47 250.61 71.79 250.54C71.79 251.67 71.52 252.78 71 253.78C69.21 257.27 64.93 258.63 61.45 256.83Z" id="e1nsjgDfo9"></path><path d="M59.91 233.4C59.67 229.97 61.91 226.87 65.24 226.02C65.23 226.22 65.22 227.19 65.2 228.95L66.81 225.76C66.81 225.76 66.81 225.76 66.81 225.76C70.72 225.57 74.05 228.59 74.24 232.5C74.24 232.51 74.24 232.52 74.24 232.53C74.28 233.35 74.18 234.18 73.94 234.96C73.06 237.82 70.48 239.83 67.49 239.97C63.58 240.25 60.19 237.3 59.91 233.4Z" id="b2LlnXpmTL"></path><path d="M77.4 221.66C77.26 217.74 80.31 214.45 84.23 214.3C85.51 214.26 86.78 214.56 87.9 215.17C87.82 215.4 87.4 216.55 86.64 218.62C88.2 217.13 89.06 216.3 89.23 216.13C90.62 217.4 91.44 219.17 91.53 221.04C91.56 221.7 91.5 222.36 91.35 223.01C90.62 226.1 87.93 228.33 84.76 228.48C80.84 228.63 77.55 225.58 77.4 221.66Z" id="bDzLYflKT"></path><path d="M77.85 208.33C76.2 208.43 74.39 208.04 73.35 206.76C72.79 206.07 72.5 205.19 72.03 204.44C71.58 203.74 70.97 203.16 70.24 202.76C68.55 206.29 70.04 210.53 73.58 212.22C77.11 213.91 81.35 212.41 83.04 208.88C83.25 208.43 83.42 207.96 83.54 207.48C83.27 207.49 83 207.51 82.73 207.54C81.09 207.72 79.49 208.23 77.85 208.33Z" id="aHGCNjNSA"></path><path d="M77.31 221.76C77.25 220.58 77.49 219.41 77.99 218.35C78.56 218.73 79.04 219.21 79.42 219.78C79.93 220.54 80.24 221.43 80.83 222.13C81.94 223.43 83.83 223.86 85.55 223.78C87.27 223.71 88.92 223.21 90.62 223.06C90.85 223.06 91.09 223.02 91.34 223.02C90.6 226.1 87.92 228.33 84.76 228.48C80.84 228.68 77.51 225.67 77.31 221.76Z" id="cD5kAMJys"></path><path d="M60.04 233.25C59.98 232.12 60.2 230.99 60.67 229.96C61.26 230.34 61.77 230.83 62.19 231.4C62.74 232.18 63.08 233.08 63.73 233.8C64.93 235.14 66.95 235.61 68.76 235.56C70.58 235.52 72.23 235.1 73.97 234.96C73.09 237.84 70.5 239.84 67.49 239.97C63.58 240.17 60.24 237.16 60.04 233.25Z" id="b1dGKJg13"></path><path d="M61.62 257.37C58.04 255.76 56.43 251.56 58.04 247.98C58.62 248.36 59.15 248.83 59.6 249.37C60.28 250.19 60.72 251.13 61.5 251.91C62.96 253.34 65.3 253.93 67.4 253.98C68.6 253.99 69.81 253.92 71 253.78C69.4 257.36 65.2 258.97 61.62 257.37Z" id="a1rAF8AQc"></path><path d="M60.53 262.89C62.2 261.66 69.14 260.25 69.58 262.18C70.02 264.11 78.02 271.81 71.68 271.84C65.34 271.87 56.96 270.83 55.26 269.81C53.57 268.8 53.24 264.27 53.24 264.27C54.7 263.99 58.86 264.12 60.53 262.89Z" id="c4FP3Ln0o9"></path><path d="M55.4 269.14C54.11 268.35 53.6 265.54 53.43 264.25C53.41 264.25 53.26 264.25 53.24 264.25C53.24 264.25 53.6 268.77 55.27 269.82C56.94 270.87 65.35 271.89 71.68 271.85C73.51 271.85 74.15 271.19 74.11 270.22C73.87 270.8 73.2 271.16 71.81 271.17C65.47 271.22 57.09 270.18 55.4 269.14Z" id="bT8byk7PH"></path><path d="M495.61 102.96C495.01 102.36 490.22 97.57 489.62 96.97C488.74 96.1 488.74 94.67 489.62 93.8C490.49 92.92 491.92 92.92 492.79 93.8C493.09 94.09 494.55 95.56 497.19 98.2C501.45 93.94 503.82 91.58 504.29 91.1C505.17 90.23 506.59 90.23 507.46 91.1C508.34 91.98 508.34 93.4 507.46 94.28C506.6 95.15 499.65 102.09 498.78 102.96C498.34 103.4 497.77 103.62 497.19 103.62C496.62 103.62 496.04 103.4 495.61 102.96Z" id="b2dYWwtV00"></path><path d="M495.61 169.52C495.01 168.92 490.22 164.13 489.62 163.53C488.74 162.66 488.74 161.23 489.62 160.36C490.49 159.48 491.92 159.48 492.79 160.36C493.09 160.65 494.55 162.12 497.19 164.76C501.45 160.5 503.82 158.14 504.29 157.66C505.17 156.79 506.59 156.79 507.46 157.66C508.34 158.54 508.34 159.96 507.46 160.84C506.6 161.71 499.65 168.65 498.78 169.52C498.34 169.96 497.77 170.18 497.19 170.18C496.62 170.18 496.04 169.96 495.61 169.52Z" id="c3hkG8CenW"></path><path d="M495.61 238.64C495.01 238.04 490.22 233.25 489.62 232.65C488.74 231.78 488.74 230.35 489.62 229.48C490.49 228.6 491.92 228.6 492.79 229.48C493.09 229.77 494.55 231.24 497.19 233.88C501.45 229.62 503.82 227.26 504.29 226.78C505.17 225.91 506.59 225.91 507.46 226.78C508.34 227.66 508.34 229.08 507.46 229.96C506.6 230.83 499.65 237.77 498.78 238.64C498.34 239.08 497.77 239.3 497.19 239.3C496.62 239.3 496.04 239.08 495.61 238.64Z" id="a4fNo0x7Rv"></path><path d="M232.29 139.45C232.29 139.45 232.29 139.45 232.29 139.45C241.05 141.07 245.92 141.98 246.89 142.16C246.89 142.16 246.89 142.16 246.89 142.16C246.06 146.65 245.59 149.15 245.5 149.65C245.5 149.65 245.5 149.65 245.5 149.65C236.74 148.02 231.87 147.12 230.9 146.94C230.9 146.94 230.9 146.94 230.9 146.94C231.73 142.44 232.2 139.95 232.29 139.45Z" id="gTDWubwIw"></path><path d="M239.23 142.91C240.93 143.22 242.17 144.17 242.02 145.01C241.86 145.86 240.35 146.29 238.66 145.98C236.96 145.66 235.71 144.72 235.87 143.87C236.02 143.02 237.53 142.59 239.23 142.91Z" id="c5JjlxXBdB"></path><path d="M239.23 142.91C240.93 143.22 242.17 144.17 242.02 145.01C241.86 145.86 240.35 146.29 238.66 145.98C236.96 145.66 235.71 144.72 235.87 143.87C236.02 143.02 237.53 142.59 239.23 142.91Z" id="bpVVODDBe"></path><path d="M263.11 138.16C263.11 138.16 263.11 138.16 263.11 138.16C271.87 139.79 276.74 140.7 277.71 140.88C277.71 140.88 277.71 140.88 277.71 140.88C276.88 145.37 276.41 147.87 276.32 148.37C276.32 148.37 276.32 148.37 276.32 148.37C267.56 146.74 262.69 145.84 261.72 145.66C261.72 145.66 261.72 145.66 261.72 145.66C262.55 141.16 263.02 138.66 263.11 138.16Z" id="clWsuz6Jg"></path><path d="M270.05 141.63C271.74 141.95 272.99 142.89 272.83 143.74C272.68 144.58 271.17 145.02 269.47 144.7C267.78 144.39 266.53 143.44 266.69 142.59C266.84 141.75 268.35 141.32 270.05 141.63Z" id="ecm4fCURc"></path><path d="M270.05 141.63C271.74 141.95 272.99 142.89 272.83 143.74C272.68 144.58 271.17 145.02 269.47 144.7C267.78 144.39 266.53 143.44 266.69 142.59C266.84 141.75 268.35 141.32 270.05 141.63Z" id="b3QYl99peT"></path><path d="M207.63 162.4C207.63 162.4 207.63 162.4 207.63 162.4C211.65 164.58 213.89 165.79 214.33 166.03C214.33 166.03 214.33 166.03 214.33 166.03C210.09 173.87 207.74 178.22 207.27 179.09C207.27 179.09 207.27 179.09 207.27 179.09C203.24 176.92 201.01 175.71 200.56 175.47C200.56 175.47 200.56 175.47 200.56 175.47C204.81 167.63 207.16 163.27 207.63 162.4Z" id="ekomUWWxy"></path><path d="M209.24 166.72C210 167.14 209.94 168.71 209.11 170.23C208.28 171.75 206.99 172.64 206.24 172.23C205.48 171.81 205.53 170.25 206.36 168.73C207.19 167.21 208.48 166.31 209.24 166.72Z" id="b1Jdd6dIxV"></path><path d="M209.24 166.72C210 167.14 209.94 168.71 209.11 170.23C208.28 171.75 206.99 172.64 206.24 172.23C205.48 171.81 205.53 170.25 206.36 168.73C207.19 167.21 208.48 166.31 209.24 166.72Z" id="aY2A36Rey"></path><path d="M339.89 191.08C339.89 191.08 339.89 191.08 339.89 191.08C343.91 193.26 346.15 194.47 346.59 194.71C346.59 194.71 346.59 194.71 346.59 194.71C342.35 202.55 340 206.9 339.52 207.77C339.52 207.77 339.52 207.77 339.52 207.77C335.5 205.6 333.27 204.39 332.82 204.15C332.82 204.15 332.82 204.15 332.82 204.15C337.06 196.31 339.42 191.96 339.89 191.08Z" id="bHr6IEXxb"></path><path d="M341.29 196.72C342.04 197.13 341.99 198.7 341.17 200.21C340.35 201.73 339.07 202.63 338.31 202.22C337.55 201.81 337.6 200.25 338.42 198.73C339.25 197.21 340.53 196.31 341.29 196.72Z" id="g2Yz7lcQgT"></path><path d="M341.29 196.72C342.04 197.13 341.99 198.7 341.17 200.21C340.35 201.73 339.07 202.63 338.31 202.22C337.55 201.81 337.6 200.25 338.42 198.73C339.25 197.21 340.53 196.31 341.29 196.72Z" id="gWA3SMjgO"></path><path d="M230.75 208.63C230.75 208.63 230.75 208.63 230.75 208.63C234.77 210.81 237 212.02 237.45 212.26C237.45 212.26 237.45 212.26 237.45 212.26C233.21 220.1 230.85 224.45 230.38 225.32C230.38 225.32 230.38 225.32 230.38 225.32C226.36 223.15 224.13 221.94 223.68 221.69C223.68 221.69 223.68 221.69 223.68 221.69C227.92 213.86 230.28 209.5 230.75 208.63Z" id="b1kwpTiPBn"></path><path d="M232.14 214.27C232.89 214.68 232.84 216.25 232.02 217.77C231.2 219.29 229.92 220.18 229.16 219.77C228.4 219.36 228.45 217.8 229.27 216.28C230.1 214.76 231.38 213.86 232.14 214.27Z" id="c4TBi5EtKz"></path><path d="M232.14 214.27C232.89 214.68 232.84 216.25 232.02 217.77C231.2 219.29 229.92 220.18 229.16 219.77C228.4 219.36 228.45 217.8 229.27 216.28C230.1 214.76 231.38 213.86 232.14 214.27Z" id="fUCYKgB2R"></path><path d="M207.63 186.64C207.63 186.64 207.63 186.64 207.63 186.64C211.65 188.82 213.89 190.02 214.33 190.27C214.33 190.27 214.33 190.27 214.33 190.27C210.09 198.1 207.74 202.46 207.26 203.33C207.26 203.33 207.26 203.33 207.26 203.33C203.24 201.15 201.01 199.94 200.56 199.7C200.56 199.7 200.56 199.7 200.56 199.7C204.8 191.86 207.16 187.51 207.63 186.64Z" id="a5YB1JJMFp"></path><path d="M209.02 192.28C209.78 192.69 209.73 194.25 208.9 195.77C208.08 197.29 206.8 198.19 206.04 197.78C205.28 197.37 205.34 195.81 206.16 194.29C206.98 192.77 208.26 191.87 209.02 192.28Z" id="ccd4ECaQq"></path><path d="M209.02 192.28C209.78 192.69 209.73 194.25 208.9 195.77C208.08 197.29 206.8 198.19 206.04 197.78C205.28 197.37 205.34 195.81 206.16 194.29C206.98 192.77 208.26 191.87 209.02 192.28Z" id="batt7aKu"></path><path d="M242.6 176.13C242.6 176.13 242.6 176.13 242.6 176.13C243.1 180.67 243.37 183.2 243.43 183.7C243.43 183.7 243.43 183.7 243.43 183.7C234.57 184.67 229.65 185.21 228.67 185.32C228.67 185.32 228.67 185.32 228.67 185.32C228.17 180.77 227.89 178.25 227.84 177.74C227.84 177.74 227.84 177.74 227.84 177.74C236.7 176.77 241.62 176.24 242.6 176.13Z" id="c3eWhwJZ1t"></path><path d="M238.76 180.48C238.85 181.34 237.53 182.19 235.82 182.38C234.1 182.56 232.63 182.02 232.54 181.16C232.44 180.31 233.76 179.46 235.48 179.27C237.19 179.08 238.66 179.63 238.76 180.48Z" id="btsaxBLlw"></path><path d="M238.76 180.48C238.85 181.34 237.53 182.19 235.82 182.38C234.1 182.56 232.63 182.02 232.54 181.16C232.44 180.31 233.76 179.46 235.48 179.27C237.19 179.08 238.66 179.63 238.76 180.48Z" id="a14UZm1aC"></path><path d="M323.45 124.19C323.45 124.19 323.45 124.19 323.45 124.19C323.94 128.74 324.22 131.26 324.27 131.77C324.27 131.77 324.27 131.77 324.27 131.77C315.42 132.74 310.49 133.28 309.51 133.38C309.51 133.38 309.51 133.38 309.51 133.38C309.01 128.84 308.74 126.31 308.68 125.81C308.68 125.81 308.68 125.81 308.68 125.81C317.54 124.84 322.46 124.3 323.45 124.19Z" id="iJukDI5vJ"></path><path d="M319.6 128.54C319.69 129.4 318.38 130.25 316.66 130.44C314.94 130.62 313.48 130.08 313.38 129.22C313.29 128.37 314.6 127.52 316.32 127.33C318.04 127.14 319.51 127.69 319.6 128.54Z" id="b2mXXBCPvs"></path><path d="M319.6 128.54C319.69 129.4 318.38 130.25 316.66 130.44C314.94 130.62 313.48 130.08 313.38 129.22C313.29 128.37 314.6 127.52 316.32 127.33C318.04 127.14 319.51 127.69 319.6 128.54Z" id="a3GnCkJXJu"></path><path d="M266.27 194.34C266.27 194.34 266.27 194.34 266.27 194.34C270.29 196.52 272.52 197.73 272.97 197.97C272.97 197.97 272.97 197.97 272.97 197.97C268.73 205.81 266.37 210.16 265.9 211.03C265.9 211.03 265.9 211.03 265.9 211.03C261.88 208.86 259.65 207.65 259.2 207.4C259.2 207.4 259.2 207.4 259.2 207.4C263.44 199.57 265.8 195.21 266.27 194.34Z" id="aat86pNJXh"></path><path d="M267.66 199.98C268.42 200.4 268.37 201.96 267.55 203.48C266.73 205 265.44 205.9 264.69 205.49C263.93 205.08 263.98 203.51 264.8 201.99C265.62 200.47 266.9 199.57 267.66 199.98Z" id="b1FIlTuNLK"></path><path d="M267.66 199.98C268.42 200.4 268.37 201.96 267.55 203.48C266.73 205 265.44 205.9 264.69 205.49C263.93 205.08 263.98 203.51 264.8 201.99C265.62 200.47 266.9 199.57 267.66 199.98Z" id="c1bkCRjUm9"></path><path d="M256.85 227.3C256.85 227.3 256.85 227.3 256.85 227.3C260.88 229.48 263.11 230.69 263.56 230.93C263.56 230.93 263.56 230.93 263.56 230.93C259.32 238.77 256.96 243.12 256.49 243.99C256.49 243.99 256.49 243.99 256.49 243.99C252.47 241.82 250.23 240.61 249.79 240.37C249.79 240.37 249.79 240.37 249.79 240.37C254.03 232.53 256.38 228.18 256.85 227.3Z" id="dAXiLVNZD"></path><path d="M258.69 231.86C259.45 232.27 259.4 233.84 258.57 235.36C257.74 236.88 256.45 237.78 255.69 237.36C254.93 236.95 254.99 235.38 255.82 233.86C256.65 232.34 257.93 231.45 258.69 231.86Z" id="gQZ3ZL6Yt"></path><path d="M258.69 231.86C259.45 232.27 259.4 233.84 258.57 235.36C257.74 236.88 256.45 237.78 255.69 237.36C254.93 236.95 254.99 235.38 255.82 233.86C256.65 232.34 257.93 231.45 258.69 231.86Z" id="f1kPRPlvq"></path></defs><g><g><g><use xlink:href="#b4czT2JvZA" opacity="1" fill="#1a62c4" fill-opacity="1"></use><g><use xlink:href="#b4czT2JvZA" opacity="1" fill-opacity="0" stroke="#000000" stroke-width="1" stroke-opacity="0"></use></g></g><g><use xlink:href="#h7hqh5BHU" opacity="1" fill="#3f3d56" fill-opacity="1"></use><g><use xlink:href="#h7hqh5BHU" opacity="1" fill-opacity="0" stroke="#000000" stroke-width="1" stroke-opacity="0"></use></g></g><g><use xlink:href="#a8kvhuQrS" opacity="1" fill="#3f3d56" fill-opacity="1"></use><g><use xlink:href="#a8kvhuQrS" opacity="1" fill-opacity="0" stroke="#000000" stroke-width="1" stroke-opacity="0"></use></g></g><g><use xlink:href="#fecGaz7Z5" opacity="1" fill="#3f3d56" fill-opacity="1"></use><g><use xlink:href="#fecGaz7Z5" opacity="1" fill-opacity="0" stroke="#000000" stroke-width="1" stroke-opacity="0"></use></g></g><g><use xlink:href="#a8eOutgZ4" opacity="1" fill="#7fe28d" fill-opacity="1"></use><g><use xlink:href="#a8eOutgZ4" opacity="1" fill-opacity="0" stroke="#000000" stroke-width="1" stroke-opacity="0"></use></g></g><g><use xlink:href="#e1LXYB9VK8" opacity="1" fill="#000000" fill-opacity="1"></use><g><use xlink:href="#e1LXYB9VK8" opacity="1" fill-opacity="0" stroke="#000000" stroke-width="1" stroke-opacity="0"></use></g></g><g><use xlink:href="#b5kE4LwyEI" opacity="1" fill="#f2f2f2" fill-opacity="1"></use><g><use xlink:href="#b5kE4LwyEI" opacity="1" fill-opacity="0" stroke="#000000" stroke-width="1" stroke-opacity="0"></use></g></g><g><use xlink:href="#a38th1Sytj" opacity="1" fill="#1783fa" fill-opacity="1"></use><g><use xlink:href="#a38th1Sytj" opacity="1" fill-opacity="0" stroke="#000000" stroke-width="1" stroke-opacity="0"></use></g></g><g><use xlink:href="#c3fPhGS6lK" opacity="1" fill="#535461" fill-opacity="1"></use><g><use xlink:href="#c3fPhGS6lK" opacity="1" fill-opacity="0" stroke="#000000" stroke-width="1" stroke-opacity="0"></use></g></g><g><use xlink:href="#b5524rL365" opacity="1" fill="#1a62c4" fill-opacity="1"></use><g><use xlink:href="#b5524rL365" opacity="1" fill-opacity="0" stroke="#000000" stroke-width="1" stroke-opacity="0"></use></g></g><g><use xlink:href="#axqVa80D0" opacity="1" fill="#1783fa" fill-opacity="1"></use><g><use xlink:href="#axqVa80D0" opacity="1" fill-opacity="0" stroke="#000000" stroke-width="1" stroke-opacity="0"></use></g></g><g><use xlink:href="#q86A5HAcNf" opacity="1" fill="#86ceff" fill-opacity="1"></use><g><use xlink:href="#q86A5HAcNf" opacity="1" fill-opacity="0" stroke="#000000" stroke-width="1" stroke-opacity="0"></use></g></g><g><use xlink:href="#ax3Xrf310" opacity="1" fill="#1783fa" fill-opacity="1"></use><g><use xlink:href="#ax3Xrf310" opacity="1" fill-opacity="0" stroke="#000000" stroke-width="1" stroke-opacity="0"></use></g></g><g><use xlink:href="#dPUEGGiHI" opacity="1" fill="#6c63ff" fill-opacity="1"></use><g><use xlink:href="#dPUEGGiHI" opacity="1" fill-opacity="0" stroke="#000000" stroke-width="1" stroke-opacity="0"></use></g></g><g><use xlink:href="#c9DkFdYB4" opacity="1" fill="#1783fa" fill-opacity="1"></use><g><use xlink:href="#c9DkFdYB4" opacity="1" fill-opacity="0" stroke="#000000" stroke-width="1" stroke-opacity="0"></use></g></g><g><use xlink:href="#a2dC1hbHdW" opacity="1" fill="#6c63ff" fill-opacity="1"></use><g><use xlink:href="#a2dC1hbHdW" opacity="1" fill-opacity="0" stroke="#000000" stroke-width="1" stroke-opacity="0"></use></g></g><g><use xlink:href="#ac7qFxTZn" opacity="1" fill="#1783fa" fill-opacity="1"></use><g><use xlink:href="#ac7qFxTZn" opacity="1" fill-opacity="0" stroke="#000000" stroke-width="1" stroke-opacity="0"></use></g></g><g><use xlink:href="#f9Sp30V6y6" opacity="1" fill="#6c63ff" fill-opacity="1"></use><g><use xlink:href="#f9Sp30V6y6" opacity="1" fill-opacity="0" stroke="#000000" stroke-width="1" stroke-opacity="0"></use></g></g><g><use xlink:href="#b13dCvcuVV" opacity="1" fill="#1783fa" fill-opacity="1"></use><g><use xlink:href="#b13dCvcuVV" opacity="1" fill-opacity="0" stroke="#000000" stroke-width="1" stroke-opacity="0"></use></g></g><g><use xlink:href="#aErIdVjHY" opacity="1" fill="#192534" fill-opacity="1"></use><g><use xlink:href="#aErIdVjHY" opacity="1" fill-opacity="0" stroke="#000000" stroke-width="1" stroke-opacity="0"></use></g></g><g><use xlink:href="#a1yWa2LVB" opacity="1" fill="#000000" fill-opacity="1"></use><g><use xlink:href="#a1yWa2LVB" opacity="1" fill-opacity="0" stroke="#000000" stroke-width="1" stroke-opacity="0"></use></g></g><g><use xlink:href="#aAJAPYsNN" opacity="1" fill="#a0616a" fill-opacity="1"></use><g><use xlink:href="#aAJAPYsNN" opacity="1" fill-opacity="0" stroke="#000000" stroke-width="1" stroke-opacity="0"></use></g></g><g><use xlink:href="#b2Pwr4VXYO" opacity="1" fill="#ffc1c7" fill-opacity="1"></use><g><use xlink:href="#b2Pwr4VXYO" opacity="1" fill-opacity="0" stroke="#000000" stroke-width="1" stroke-opacity="0"></use></g></g><g><use xlink:href="#bHyFUBMkG" opacity="1" fill="#ffc1c7" fill-opacity="1"></use><g><use xlink:href="#bHyFUBMkG" opacity="1" fill-opacity="0" stroke="#000000" stroke-width="1" stroke-opacity="0"></use></g></g><g><use xlink:href="#d1e0eI5bKK" opacity="1" fill="#86ceff" fill-opacity="1"></use><g><use xlink:href="#d1e0eI5bKK" opacity="1" fill-opacity="0" stroke="#000000" stroke-width="1" stroke-opacity="0"></use></g></g><g><use xlink:href="#aNFHHjCx" opacity="1" fill="#000000" fill-opacity="1"></use><g><use xlink:href="#aNFHHjCx" opacity="1" fill-opacity="0" stroke="#000000" stroke-width="1" stroke-opacity="0"></use></g></g><g><use xlink:href="#a1gBIt1Ohf" opacity="1" fill="#192534" fill-opacity="1"></use><g><use xlink:href="#a1gBIt1Ohf" opacity="1" fill-opacity="0" stroke="#000000" stroke-width="1" stroke-opacity="0"></use></g></g><g><use xlink:href="#a4XHHaNrrM" opacity="1" fill="#000000" fill-opacity="1"></use><g><use xlink:href="#a4XHHaNrrM" opacity="1" fill-opacity="0" stroke="#000000" stroke-width="1" stroke-opacity="0"></use></g></g><g><use xlink:href="#c4QG7NYxO" opacity="1" fill="#ffc1c7" fill-opacity="1"></use><g><use xlink:href="#c4QG7NYxO" opacity="1" fill-opacity="0" stroke="#000000" stroke-width="1" stroke-opacity="0"></use></g></g><g><use xlink:href="#b6OthmWi2" opacity="1" fill="#1783fa" fill-opacity="1"></use><g><use xlink:href="#b6OthmWi2" opacity="1" fill-opacity="0" stroke="#000000" stroke-width="1" stroke-opacity="0"></use></g></g><g><use xlink:href="#aQFWZqxxG" opacity="1" fill="#192534" fill-opacity="1"></use><g><use xlink:href="#aQFWZqxxG" opacity="1" fill-opacity="0" stroke="#000000" stroke-width="1" stroke-opacity="0"></use></g></g><g><use xlink:href="#b8zDf9H0A" opacity="1" fill="#000000" fill-opacity="1"></use><g><use xlink:href="#b8zDf9H0A" opacity="1" fill-opacity="0" stroke="#000000" stroke-width="1" stroke-opacity="0"></use></g></g><g><use xlink:href="#b1hY3VLYSK" opacity="1" fill="#192534" fill-opacity="1"></use><g><use xlink:href="#b1hY3VLYSK" opacity="1" fill-opacity="0" stroke="#000000" stroke-width="1" stroke-opacity="0"></use></g></g><g><use xlink:href="#bWCtsHHac" opacity="1" fill="#192534" fill-opacity="1"></use><g><use xlink:href="#bWCtsHHac" opacity="1" fill-opacity="0" stroke="#000000" stroke-width="1" stroke-opacity="0"></use></g></g><g><use xlink:href="#f1Tf13OA9E" opacity="1" fill="#192534" fill-opacity="1"></use><g><use xlink:href="#f1Tf13OA9E" opacity="1" fill-opacity="0" stroke="#000000" stroke-width="1" stroke-opacity="0"></use></g></g><g><use xlink:href="#c6cSa422Qz" opacity="1" fill="#ffc1c7" fill-opacity="1"></use><g><use xlink:href="#c6cSa422Qz" opacity="1" fill-opacity="0" stroke="#000000" stroke-width="1" stroke-opacity="0"></use></g></g><g><use xlink:href="#azStfWECC" opacity="1" fill="#000000" fill-opacity="1"></use><g><use xlink:href="#azStfWECC" opacity="1" fill-opacity="0" stroke="#000000" stroke-width="1" stroke-opacity="0"></use></g></g><g><use xlink:href="#a18wecnDFA" opacity="1" fill="#ffc1c7" fill-opacity="1"></use><g><use xlink:href="#a18wecnDFA" opacity="1" fill-opacity="0" stroke="#000000" stroke-width="1" stroke-opacity="0"></use></g></g><g><use xlink:href="#cfjq2HQ47" opacity="1" fill="#86ceff" fill-opacity="1"></use><g><use xlink:href="#cfjq2HQ47" opacity="1" fill-opacity="0" stroke="#000000" stroke-width="1" stroke-opacity="0"></use></g></g><g><use xlink:href="#b4p66tDFHM" opacity="1" fill="#000000" fill-opacity="1"></use><g><use xlink:href="#b4p66tDFHM" opacity="1" fill-opacity="0" stroke="#000000" stroke-width="1" stroke-opacity="0"></use></g></g><g><use xlink:href="#eCrGi9uRF" opacity="1" fill="#86ceff" fill-opacity="1"></use><g><use xlink:href="#eCrGi9uRF" opacity="1" fill-opacity="0" stroke="#000000" stroke-width="1" stroke-opacity="0"></use></g></g><g><use xlink:href="#c1Z1LhZaOa" opacity="1" fill="#000000" fill-opacity="1"></use><g><use xlink:href="#c1Z1LhZaOa" opacity="1" fill-opacity="0" stroke="#000000" stroke-width="1" stroke-opacity="0"></use></g></g><g><use xlink:href="#b1M0nPV1pO" opacity="1" fill="#86ceff" fill-opacity="1"></use><g><use xlink:href="#b1M0nPV1pO" opacity="1" fill-opacity="0" stroke="#000000" stroke-width="1" stroke-opacity="0"></use></g></g><g><use xlink:href="#bd9mxI9BD" opacity="1" fill="#192534" fill-opacity="1"></use><g><use xlink:href="#bd9mxI9BD" opacity="1" fill-opacity="0" stroke="#000000" stroke-width="1" stroke-opacity="0"></use></g></g><g><use xlink:href="#acWew7oPq" opacity="1" fill="#000000" fill-opacity="1"></use><g><use xlink:href="#acWew7oPq" opacity="1" fill-opacity="0" stroke="#000000" stroke-width="1" stroke-opacity="0"></use></g></g><g><use xlink:href="#a6XQUkVNA" opacity="1" fill="#86ceff" fill-opacity="1"></use><g><use xlink:href="#a6XQUkVNA" opacity="1" fill-opacity="0" stroke="#000000" stroke-width="1" stroke-opacity="0"></use></g></g><g><use xlink:href="#a3nCZTbXS8" opacity="1" fill="#000000" fill-opacity="1"></use><g><use xlink:href="#a3nCZTbXS8" opacity="1" fill-opacity="0" stroke="#000000" stroke-width="1" stroke-opacity="0"></use></g></g><g><use xlink:href="#c8THiWdo6b" opacity="1" fill="#86ceff" fill-opacity="1"></use><g><use xlink:href="#c8THiWdo6b" opacity="1" fill-opacity="0" stroke="#000000" stroke-width="1" stroke-opacity="0"></use></g></g><g><use xlink:href="#a827WJ44ts" opacity="1" fill="#000000" fill-opacity="1"></use><g><use xlink:href="#a827WJ44ts" opacity="1" fill-opacity="0" stroke="#000000" stroke-width="1" stroke-opacity="0"></use></g></g><g><use xlink:href="#b1zPB21NX9" opacity="1" fill="#1783fa" fill-opacity="1"></use><g><use xlink:href="#b1zPB21NX9" opacity="1" fill-opacity="0" stroke="#000000" stroke-width="1" stroke-opacity="0"></use></g></g><g><use xlink:href="#b6KPu7UIk" opacity="1" fill="#6c63ff" fill-opacity="1"></use><g><use xlink:href="#b6KPu7UIk" opacity="1" fill-opacity="0" stroke="#000000" stroke-width="1" stroke-opacity="0"></use></g></g><g><use xlink:href="#bHEO00u6u" opacity="1" fill="#fbbebe" fill-opacity="1"></use><g><use xlink:href="#bHEO00u6u" opacity="1" fill-opacity="0" stroke="#000000" stroke-width="1" stroke-opacity="0"></use></g></g><g><use xlink:href="#ftroKtkRz" opacity="1" fill="#000000" fill-opacity="1"></use><g><use xlink:href="#ftroKtkRz" opacity="1" fill-opacity="0" stroke="#000000" stroke-width="1" stroke-opacity="0"></use></g></g><g><use xlink:href="#c6KgJtACX" opacity="1" fill="#fbbebe" fill-opacity="1"></use><g><use xlink:href="#c6KgJtACX" opacity="1" fill-opacity="0" stroke="#000000" stroke-width="1" stroke-opacity="0"></use></g></g><g><use xlink:href="#b1N6d21ppT" opacity="1" fill="#f2f2f2" fill-opacity="1"></use><g><use xlink:href="#b1N6d21ppT" opacity="1" fill-opacity="0" stroke="#000000" stroke-width="1" stroke-opacity="0"></use></g></g><g><use xlink:href="#ch3L8vuEb" opacity="1" fill="#86ceff" fill-opacity="1"></use><g><use xlink:href="#ch3L8vuEb" opacity="1" fill-opacity="0" stroke="#000000" stroke-width="1" stroke-opacity="0"></use></g></g><g><use xlink:href="#i5p3VidsM" opacity="1" fill="#192534" fill-opacity="1"></use><g><use xlink:href="#i5p3VidsM" opacity="1" fill-opacity="0" stroke="#000000" stroke-width="1" stroke-opacity="0"></use></g></g><g><use xlink:href="#aKkAvnd7q" opacity="1" fill="#86ceff" fill-opacity="1"></use><g><use xlink:href="#aKkAvnd7q" opacity="1" fill-opacity="0" stroke="#000000" stroke-width="1" stroke-opacity="0"></use></g></g><g><use xlink:href="#b1gYizAsqu" opacity="1" fill="#86ceff" fill-opacity="1"></use><g><use xlink:href="#b1gYizAsqu" opacity="1" fill-opacity="0" stroke="#000000" stroke-width="1" stroke-opacity="0"></use></g></g><g><use xlink:href="#l6PdjsbI" opacity="1" fill="url(#gradientaCbZJ3BWV)"></use><g><use xlink:href="#l6PdjsbI" opacity="1" fill-opacity="0" stroke="#000000" stroke-width="1" stroke-opacity="0"></use></g></g><g><use xlink:href="#b2AxC1jwhz" opacity="1" fill="#d1ecfe" fill-opacity="1"></use><g><use xlink:href="#b2AxC1jwhz" opacity="1" fill-opacity="0" stroke="#000000" stroke-width="1" stroke-opacity="0"></use></g></g><g><use xlink:href="#b1YZFuOZgb" opacity="1" fill="#3f3d56" fill-opacity="1"></use><g><use xlink:href="#b1YZFuOZgb" opacity="1" fill-opacity="0" stroke="#000000" stroke-width="1" stroke-opacity="0"></use></g></g><g><use xlink:href="#c2uT4vMGvS" opacity="1" fill="#000000" fill-opacity="1"></use><g><use xlink:href="#c2uT4vMGvS" opacity="1" fill-opacity="0" stroke="#000000" stroke-width="1" stroke-opacity="0"></use></g></g><g><use xlink:href="#b4R7C4UhmM" opacity="1" fill="#000000" fill-opacity="1"></use><g><use xlink:href="#b4R7C4UhmM" opacity="1" fill-opacity="0" stroke="#000000" stroke-width="1" stroke-opacity="0"></use></g></g><g><use xlink:href="#d11QljBNHm" opacity="1" fill="#fbbebe" fill-opacity="1"></use><g><use xlink:href="#d11QljBNHm" opacity="1" fill-opacity="0" stroke="#000000" stroke-width="1" stroke-opacity="0"></use></g></g><g><use xlink:href="#b7NHa0QYQ" opacity="1" fill="#000000" fill-opacity="1"></use><g><use xlink:href="#b7NHa0QYQ" opacity="1" fill-opacity="0" stroke="#000000" stroke-width="1" stroke-opacity="0"></use></g></g><g><use xlink:href="#b96rmjloi" opacity="1" fill="#fbbebe" fill-opacity="1"></use><g><use xlink:href="#b96rmjloi" opacity="1" fill-opacity="0" stroke="#000000" stroke-width="1" stroke-opacity="0"></use></g></g><g><use xlink:href="#aWn2ZaDcT" opacity="1" fill="#000000" fill-opacity="1"></use><g><use xlink:href="#aWn2ZaDcT" opacity="1" fill-opacity="0" stroke="#000000" stroke-width="1" stroke-opacity="0"></use></g></g><g><use xlink:href="#b4jLAEowYk" opacity="1" fill="#000000" fill-opacity="1"></use><g><use xlink:href="#b4jLAEowYk" opacity="1" fill-opacity="0" stroke="#000000" stroke-width="1" stroke-opacity="0"></use></g></g><g><use xlink:href="#a23oBCXf3j" opacity="1" fill="#3f3d56" fill-opacity="1"></use><g><use xlink:href="#a23oBCXf3j" opacity="1" fill-opacity="0" stroke="#000000" stroke-width="1" stroke-opacity="0"></use></g></g><g><use xlink:href="#c2grxsFJ92" opacity="1" fill="#000000" fill-opacity="1"></use><g><use xlink:href="#c2grxsFJ92" opacity="1" fill-opacity="0" stroke="#000000" stroke-width="1" stroke-opacity="0"></use></g></g><g><use xlink:href="#b15H8etqzX" opacity="1" fill="#fbbebe" fill-opacity="1"></use><g><use xlink:href="#b15H8etqzX" opacity="1" fill-opacity="0" stroke="#000000" stroke-width="1" stroke-opacity="0"></use></g></g><g><use xlink:href="#g2w5VhFIHY" opacity="1" fill="#000000" fill-opacity="1"></use><g><use xlink:href="#g2w5VhFIHY" opacity="1" fill-opacity="0" stroke="#000000" stroke-width="1" stroke-opacity="0"></use></g></g><g><use xlink:href="#dUX0QCTDg" opacity="1" fill="#fbbebe" fill-opacity="1"></use><g><use xlink:href="#dUX0QCTDg" opacity="1" fill-opacity="0" stroke="#000000" stroke-width="1" stroke-opacity="0"></use></g></g><g><use xlink:href="#d6lJPrO40" opacity="1" fill="#000000" fill-opacity="1"></use><g><use xlink:href="#d6lJPrO40" opacity="1" fill-opacity="0" stroke="#000000" stroke-width="1" stroke-opacity="0"></use></g></g><g><use xlink:href="#c4i2EnoVwd" opacity="1" fill="#3f3d56" fill-opacity="1"></use><g><use xlink:href="#c4i2EnoVwd" opacity="1" fill-opacity="0" stroke="#000000" stroke-width="1" stroke-opacity="0"></use></g></g><g><use xlink:href="#k26T7oPjr5" opacity="1" fill="#000000" fill-opacity="1"></use><g><use xlink:href="#k26T7oPjr5" opacity="1" fill-opacity="0" stroke="#000000" stroke-width="1" stroke-opacity="0"></use></g></g><g><use xlink:href="#a3QkNJrWLd" opacity="1" fill="#3f3d56" fill-opacity="1"></use><g><use xlink:href="#a3QkNJrWLd" opacity="1" fill-opacity="0" stroke="#000000" stroke-width="1" stroke-opacity="0"></use></g></g><g><use xlink:href="#e3QbjeLqs1" opacity="1" fill="#000000" fill-opacity="1"></use><g><use xlink:href="#e3QbjeLqs1" opacity="1" fill-opacity="0" stroke="#000000" stroke-width="1" stroke-opacity="0"></use></g></g><g><use xlink:href="#b1cJNTOrxP" opacity="1" fill="#000000" fill-opacity="1"></use><g><use xlink:href="#b1cJNTOrxP" opacity="1" fill-opacity="0" stroke="#000000" stroke-width="1" stroke-opacity="0"></use></g></g><g><use xlink:href="#b13Jik7ayx" opacity="1" fill="#000000" fill-opacity="1"></use><g><use xlink:href="#b13Jik7ayx" opacity="1" fill-opacity="0" stroke="#000000" stroke-width="1" stroke-opacity="0"></use></g></g><g><use xlink:href="#c1xldXfzNQ" opacity="1" fill="#000000" fill-opacity="1"></use><g><use xlink:href="#c1xldXfzNQ" opacity="1" fill-opacity="0" stroke="#000000" stroke-width="1" stroke-opacity="0"></use></g></g><g><use xlink:href="#a4bQPxExK" opacity="1" fill="#000000" fill-opacity="1"></use><g><use xlink:href="#a4bQPxExK" opacity="1" fill-opacity="0" stroke="#000000" stroke-width="1" stroke-opacity="0"></use></g></g><g><use xlink:href="#c5qvAPpTK" opacity="1" fill="#3f3d56" fill-opacity="1"></use><g><use xlink:href="#c5qvAPpTK" opacity="1" fill-opacity="0" stroke="#000000" stroke-width="1" stroke-opacity="0"></use></g></g><g><use xlink:href="#atBY78T9v" opacity="1" fill="#3f3d56" fill-opacity="1"></use><g><use xlink:href="#atBY78T9v" opacity="1" fill-opacity="0" stroke="#000000" stroke-width="1" stroke-opacity="0"></use></g></g><g><use xlink:href="#b17q7MpAQ0" opacity="1" fill="#000000" fill-opacity="1"></use><g><use xlink:href="#b17q7MpAQ0" opacity="1" fill-opacity="0" stroke="#000000" stroke-width="1" stroke-opacity="0"></use></g></g><g><use xlink:href="#a6bh43KK4q" opacity="1" fill="#000000" fill-opacity="1"></use><g><use xlink:href="#a6bh43KK4q" opacity="1" fill-opacity="0" stroke="#000000" stroke-width="1" stroke-opacity="0"></use></g></g><g><use xlink:href="#c2aMlYMluv" opacity="1" fill="#000000" fill-opacity="1"></use><g><use xlink:href="#c2aMlYMluv" opacity="1" fill-opacity="0" stroke="#000000" stroke-width="1" stroke-opacity="0"></use></g></g><g><use xlink:href="#blk8b0aqO" opacity="1" fill="#000000" fill-opacity="1"></use><g><use xlink:href="#blk8b0aqO" opacity="1" fill-opacity="0" stroke="#000000" stroke-width="1" stroke-opacity="0"></use></g></g><g><use xlink:href="#j5OKLGhOs5" opacity="1" fill="#000000" fill-opacity="1"></use><g><use xlink:href="#j5OKLGhOs5" opacity="1" fill-opacity="0" stroke="#000000" stroke-width="1" stroke-opacity="0"></use></g></g><g><use xlink:href="#oE1knBVh9" opacity="1" fill="#000000" fill-opacity="1"></use><g><use xlink:href="#oE1knBVh9" opacity="1" fill-opacity="0" stroke="#000000" stroke-width="1" stroke-opacity="0"></use></g></g><g><use xlink:href="#e1gYeP1o93" opacity="1" fill="#000000" fill-opacity="1"></use><g><use xlink:href="#e1gYeP1o93" opacity="1" fill-opacity="0" stroke="#000000" stroke-width="1" stroke-opacity="0"></use></g></g><g><use xlink:href="#a2GRdXHLj" opacity="1" fill="#000000" fill-opacity="1"></use><g><use xlink:href="#a2GRdXHLj" opacity="1" fill-opacity="0" stroke="#000000" stroke-width="1" stroke-opacity="0"></use></g></g><g><use xlink:href="#b3b9rk9jbG" opacity="1" fill="#000000" fill-opacity="1"></use><g><use xlink:href="#b3b9rk9jbG" opacity="1" fill-opacity="0" stroke="#000000" stroke-width="1" stroke-opacity="0"></use></g></g><g><use xlink:href="#a6ONaWoYRO" opacity="1" fill="#000000" fill-opacity="1"></use><g><use xlink:href="#a6ONaWoYRO" opacity="1" fill-opacity="0" stroke="#000000" stroke-width="1" stroke-opacity="0"></use></g></g><g><use xlink:href="#bEVyU3eP3" opacity="1" fill="#3f3d56" fill-opacity="1"></use><g><use xlink:href="#bEVyU3eP3" opacity="1" fill-opacity="0" stroke="#000000" stroke-width="1" stroke-opacity="0"></use></g></g><g><use xlink:href="#a1AbpaocHL" opacity="1" fill="#29ce41" fill-opacity="1"></use><g><use xlink:href="#a1AbpaocHL" opacity="1" fill-opacity="0" stroke="#000000" stroke-width="1" stroke-opacity="0"></use></g></g><g><use xlink:href="#e1nsjgDfo9" opacity="1" fill="#29ce41" fill-opacity="1"></use><g><use xlink:href="#e1nsjgDfo9" opacity="1" fill-opacity="0" stroke="#000000" stroke-width="1" stroke-opacity="0"></use></g></g><g><use xlink:href="#b2LlnXpmTL" opacity="1" fill="#29ce41" fill-opacity="1"></use><g><use xlink:href="#b2LlnXpmTL" opacity="1" fill-opacity="0" stroke="#000000" stroke-width="1" stroke-opacity="0"></use></g></g><g><use xlink:href="#bDzLYflKT" opacity="1" fill="#29ce41" fill-opacity="1"></use><g><use xlink:href="#bDzLYflKT" opacity="1" fill-opacity="0" stroke="#000000" stroke-width="1" stroke-opacity="0"></use></g></g><g><use xlink:href="#aHGCNjNSA" opacity="1" fill="#000000" fill-opacity="1"></use><g><use xlink:href="#aHGCNjNSA" opacity="1" fill-opacity="0" stroke="#000000" stroke-width="1" stroke-opacity="0"></use></g></g><g><use xlink:href="#cD5kAMJys" opacity="1" fill="#000000" fill-opacity="1"></use><g><use xlink:href="#cD5kAMJys" opacity="1" fill-opacity="0" stroke="#000000" stroke-width="1" stroke-opacity="0"></use></g></g><g><use xlink:href="#b1dGKJg13" opacity="1" fill="#000000" fill-opacity="1"></use><g><use xlink:href="#b1dGKJg13" opacity="1" fill-opacity="0" stroke="#000000" stroke-width="1" stroke-opacity="0"></use></g></g><g><use xlink:href="#a1rAF8AQc" opacity="1" fill="#000000" fill-opacity="1"></use><g><use xlink:href="#a1rAF8AQc" opacity="1" fill-opacity="0" stroke="#000000" stroke-width="1" stroke-opacity="0"></use></g></g><g><use xlink:href="#c4FP3Ln0o9" opacity="1" fill="#656380" fill-opacity="1"></use><g><use xlink:href="#c4FP3Ln0o9" opacity="1" fill-opacity="0" stroke="#000000" stroke-width="1" stroke-opacity="0"></use></g></g><g><use xlink:href="#bT8byk7PH" opacity="1" fill="#000000" fill-opacity="1"></use><g><use xlink:href="#bT8byk7PH" opacity="1" fill-opacity="0" stroke="#000000" stroke-width="1" stroke-opacity="0"></use></g></g><g><use xlink:href="#b2dYWwtV00" opacity="1" fill="#7fe28d" fill-opacity="1"></use><g><use xlink:href="#b2dYWwtV00" opacity="1" fill-opacity="0" stroke="#000000" stroke-width="1" stroke-opacity="0"></use></g></g><g><use xlink:href="#c3hkG8CenW" opacity="1" fill="#7fe28d" fill-opacity="1"></use><g><use xlink:href="#c3hkG8CenW" opacity="1" fill-opacity="0" stroke="#000000" stroke-width="1" stroke-opacity="0"></use></g></g><g><use xlink:href="#a4fNo0x7Rv" opacity="1" fill="#7fe28d" fill-opacity="1"></use><g><use xlink:href="#a4fNo0x7Rv" opacity="1" fill-opacity="0" stroke="#000000" stroke-width="1" stroke-opacity="0"></use></g></g><g><use xlink:href="#gTDWubwIw" opacity="1" fill="#8ed16f" fill-opacity="1"></use><g><use xlink:href="#gTDWubwIw" opacity="1" fill-opacity="0" stroke="#000000" stroke-width="1" stroke-opacity="0"></use></g></g><g><use xlink:href="#c5JjlxXBdB" opacity="1" fill="#8ed16f" fill-opacity="1"></use><g><use xlink:href="#c5JjlxXBdB" opacity="1" fill-opacity="0" stroke="#000000" stroke-width="1" stroke-opacity="0"></use></g></g><g><use xlink:href="#bpVVODDBe" opacity="1" fill="#000000" fill-opacity="1"></use><g><use xlink:href="#bpVVODDBe" opacity="1" fill-opacity="0" stroke="#000000" stroke-width="1" stroke-opacity="0"></use></g></g><g><use xlink:href="#clWsuz6Jg" opacity="1" fill="#8ed16f" fill-opacity="1"></use><g><use xlink:href="#clWsuz6Jg" opacity="1" fill-opacity="0" stroke="#000000" stroke-width="1" stroke-opacity="0"></use></g></g><g><use xlink:href="#ecm4fCURc" opacity="1" fill="#8ed16f" fill-opacity="1"></use><g><use xlink:href="#ecm4fCURc" opacity="1" fill-opacity="0" stroke="#000000" stroke-width="1" stroke-opacity="0"></use></g></g><g><use xlink:href="#b3QYl99peT" opacity="1" fill="#000000" fill-opacity="1"></use><g><use xlink:href="#b3QYl99peT" opacity="1" fill-opacity="0" stroke="#000000" stroke-width="1" stroke-opacity="0"></use></g></g><g><use xlink:href="#ekomUWWxy" opacity="1" fill="#8ed16f" fill-opacity="1"></use><g><use xlink:href="#ekomUWWxy" opacity="1" fill-opacity="0" stroke="#000000" stroke-width="1" stroke-opacity="0"></use></g></g><g><use xlink:href="#b1Jdd6dIxV" opacity="1" fill="#8ed16f" fill-opacity="1"></use><g><use xlink:href="#b1Jdd6dIxV" opacity="1" fill-opacity="0" stroke="#000000" stroke-width="1" stroke-opacity="0"></use></g></g><g><use xlink:href="#aY2A36Rey" opacity="1" fill="#000000" fill-opacity="1"></use><g><use xlink:href="#aY2A36Rey" opacity="1" fill-opacity="0" stroke="#000000" stroke-width="1" stroke-opacity="0"></use></g></g><g><use xlink:href="#bHr6IEXxb" opacity="1" fill="#8ed16f" fill-opacity="1"></use><g><use xlink:href="#bHr6IEXxb" opacity="1" fill-opacity="0" stroke="#000000" stroke-width="1" stroke-opacity="0"></use></g></g><g><use xlink:href="#g2Yz7lcQgT" opacity="1" fill="#8ed16f" fill-opacity="1"></use><g><use xlink:href="#g2Yz7lcQgT" opacity="1" fill-opacity="0" stroke="#000000" stroke-width="1" stroke-opacity="0"></use></g></g><g><use xlink:href="#gWA3SMjgO" opacity="1" fill="#000000" fill-opacity="1"></use><g><use xlink:href="#gWA3SMjgO" opacity="1" fill-opacity="0" stroke="#000000" stroke-width="1" stroke-opacity="0"></use></g></g><g><use xlink:href="#b1kwpTiPBn" opacity="1" fill="#8ed16f" fill-opacity="1"></use><g><use xlink:href="#b1kwpTiPBn" opacity="1" fill-opacity="0" stroke="#000000" stroke-width="1" stroke-opacity="0"></use></g></g><g><use xlink:href="#c4TBi5EtKz" opacity="1" fill="#8ed16f" fill-opacity="1"></use><g><use xlink:href="#c4TBi5EtKz" opacity="1" fill-opacity="0" stroke="#000000" stroke-width="1" stroke-opacity="0"></use></g></g><g><use xlink:href="#fUCYKgB2R" opacity="1" fill="#000000" fill-opacity="1"></use><g><use xlink:href="#fUCYKgB2R" opacity="1" fill-opacity="0" stroke="#000000" stroke-width="1" stroke-opacity="0"></use></g></g><g><use xlink:href="#a5YB1JJMFp" opacity="1" fill="#8ed16f" fill-opacity="1"></use><g><use xlink:href="#a5YB1JJMFp" opacity="1" fill-opacity="0" stroke="#000000" stroke-width="1" stroke-opacity="0"></use></g></g><g><use xlink:href="#ccd4ECaQq" opacity="1" fill="#8ed16f" fill-opacity="1"></use><g><use xlink:href="#ccd4ECaQq" opacity="1" fill-opacity="0" stroke="#000000" stroke-width="1" stroke-opacity="0"></use></g></g><g><use xlink:href="#batt7aKu" opacity="1" fill="#000000" fill-opacity="1"></use><g><use xlink:href="#batt7aKu" opacity="1" fill-opacity="0" stroke="#000000" stroke-width="1" stroke-opacity="0"></use></g></g><g><use xlink:href="#c3eWhwJZ1t" opacity="1" fill="#8ed16f" fill-opacity="1"></use><g><use xlink:href="#c3eWhwJZ1t" opacity="1" fill-opacity="0" stroke="#000000" stroke-width="1" stroke-opacity="0"></use></g></g><g><use xlink:href="#btsaxBLlw" opacity="1" fill="#8ed16f" fill-opacity="1"></use><g><use xlink:href="#btsaxBLlw" opacity="1" fill-opacity="0" stroke="#000000" stroke-width="1" stroke-opacity="0"></use></g></g><g><use xlink:href="#a14UZm1aC" opacity="1" fill="#000000" fill-opacity="1"></use><g><use xlink:href="#a14UZm1aC" opacity="1" fill-opacity="0" stroke="#000000" stroke-width="1" stroke-opacity="0"></use></g></g><g><use xlink:href="#iJukDI5vJ" opacity="1" fill="#8ed16f" fill-opacity="1"></use><g><use xlink:href="#iJukDI5vJ" opacity="1" fill-opacity="0" stroke="#000000" stroke-width="1" stroke-opacity="0"></use></g></g><g><use xlink:href="#b2mXXBCPvs" opacity="1" fill="#8ed16f" fill-opacity="1"></use><g><use xlink:href="#b2mXXBCPvs" opacity="1" fill-opacity="0" stroke="#000000" stroke-width="1" stroke-opacity="0"></use></g></g><g><use xlink:href="#a3GnCkJXJu" opacity="1" fill="#000000" fill-opacity="1"></use><g><use xlink:href="#a3GnCkJXJu" opacity="1" fill-opacity="0" stroke="#000000" stroke-width="1" stroke-opacity="0"></use></g></g><g><use xlink:href="#aat86pNJXh" opacity="1" fill="#8ed16f" fill-opacity="1"></use><g><use xlink:href="#aat86pNJXh" opacity="1" fill-opacity="0" stroke="#000000" stroke-width="1" stroke-opacity="0"></use></g></g><g><use xlink:href="#b1FIlTuNLK" opacity="1" fill="#8ed16f" fill-opacity="1"></use><g><use xlink:href="#b1FIlTuNLK" opacity="1" fill-opacity="0" stroke="#000000" stroke-width="1" stroke-opacity="0"></use></g></g><g><use xlink:href="#c1bkCRjUm9" opacity="1" fill="#000000" fill-opacity="1"></use><g><use xlink:href="#c1bkCRjUm9" opacity="1" fill-opacity="0" stroke="#000000" stroke-width="1" stroke-opacity="0"></use></g></g><g><use xlink:href="#dAXiLVNZD" opacity="1" fill="#8ed16f" fill-opacity="1"></use><g><use xlink:href="#dAXiLVNZD" opacity="1" fill-opacity="0" stroke="#000000" stroke-width="1" stroke-opacity="0"></use></g></g><g><use xlink:href="#gQZ3ZL6Yt" opacity="1" fill="#8ed16f" fill-opacity="1"></use><g><use xlink:href="#gQZ3ZL6Yt" opacity="1" fill-opacity="0" stroke="#000000" stroke-width="1" stroke-opacity="0"></use></g></g><g><use xlink:href="#f1kPRPlvq" opacity="1" fill="#000000" fill-opacity="1"></use><g><use xlink:href="#f1kPRPlvq" opacity="1" fill-opacity="0" stroke="#000000" stroke-width="1" stroke-opacity="0"></use></g></g></g></g></svg>