<?xml version="1.0" encoding="utf-8"?>
<!-- Generator: Adobe Illustrator 22.1.0, SVG Export Plug-In . SVG Version: 6.00 Build 0)  -->
<svg version="1.1" id="Слой_1" xmlns="http://www.w3.org/2000/svg" xmlns:xlink="http://www.w3.org/1999/xlink" x="0px" y="0px"
	 viewBox="0 0 500 500" style="enable-background:new 0 0 500 500;" xml:space="preserve">
<g>
	<path style="fill:#86CEFF;" d="M201.5913086,220.559082h-15v-78.6503906C186.5913086,106.9448242,215.0361328,78.5,250,78.5
		s63.4082031,28.4448242,63.4082031,63.4086914v69.1748047h-15v-69.1748047C298.4082031,115.2158203,276.6923828,93.5,250,93.5
		c-26.6928711,0-48.4086914,21.7158203-48.4086914,48.4086914V220.559082z"/>
</g>
<g>
	<circle style="fill:#1AA0FC;" cx="250" cy="299" r="119"/>
</g>
<g>
	<path style="fill:#1783FA;" d="M369,299c0,65.7199707-53.2800293,119-119,119V180C315.7199707,180,369,233.2799683,369,299z"/>
</g>
<g>
	<path style="fill:#FEF6D2;" d="M249.3349609,333.2490234c-1.9194336,0-3.8388672-0.7324219-5.3032227-2.1962891
		l-37.668457-37.6679688c-2.9291992-2.9296875-2.9291992-7.6777344,0-10.6074219
		c2.9287109-2.9277344,7.6777344-2.9277344,10.6064453,0l32.3652344,32.3652344l44.3613281-44.3623047
		c2.9296875-2.9277344,7.6777344-2.9277344,10.6074219,0c2.9287109,2.9296875,2.9287109,7.6777344,0,10.6074219
		l-49.6650391,49.6650391C253.1738281,332.5166016,251.2539063,333.2490234,249.3349609,333.2490234z"/>
</g>
</svg>
